<svg id="Layer_1" data-name="Layer 1" xmlns="http://www.w3.org/2000/svg" viewBox="0 0 400 400"><defs><style>.cls-1{fill:#ff5096;}.cls-2{fill:#ff277f;}.cls-3{fill:#282828;}.cls-4{fill:#ffbbd7;}.cls-5{fill:#ff7db2;}.cls-19,.cls-6{fill:none;}.cls-11,.cls-19,.cls-22,.cls-23,.cls-6{stroke:#1c0000;stroke-linecap:round;stroke-linejoin:round;}.cls-11,.cls-6{stroke-width:0.75px;}.cls-7{fill:#ff99c3;}.cls-8{fill:#fc1d82;}.cls-9{fill:#8c545f;}.cls-10{fill:#91636a;}.cls-11,.cls-23{fill:#1c0000;}.cls-12{fill:#f1b39c;}.cls-13{fill:#d68c7b;}.cls-14{fill:#6574c3;}.cls-15{fill:#5568b5;}.cls-16{fill:#910038;}.cls-17{fill:#bc7588;}.cls-18{fill:#6275c1;}.cls-19,.cls-22,.cls-23{stroke-width:0.77px;}.cls-20{fill:#bc2856;}.cls-21{fill:#ad1e51;}.cls-22{fill:#fff;}</style></defs><path id="BACK_SHAPE" data-name="BACK SHAPE" class="cls-1" d="M6.32,111.83C30.83,12.25,95.2,1.84,169,61S282.62-54.82,365.52,52.8C423.37,127.91,388,335.39,205,387.44c-74.45,21.18-34.47-141.1-84-117.44C31,313-7.91,169.61,6.32,111.83Z"/><g id="GIRL_GAMMING" data-name="GIRL GAMMING"><path class="cls-2" d="M178.43,45a6,6,0,0,0-7.68-3.7L3.78,99.66a6,6,0,0,0-3.7,7.68L39.16,219.1q4.94,3.18,10.27,6.1l165.4-57.83a6,6,0,0,0,3.7-7.68Z"/><path class="cls-3" d="M31.09,73.07,12.94,77.94a6,6,0,0,0-4.27,7.38L40.12,202.69A6,6,0,0,0,47.51,207l18.15-4.86Z"/><rect class="cls-3" x="27.36" y="51.12" width="188.93" height="133.57" rx="6.03" transform="translate(-26.36 35.55) rotate(-15)"/><path class="cls-4" d="M52,199.47,20.6,82.15l.08-.13L191.47,36.25l.14.08L223,153.65l-.07.13L52.17,199.55Z"/><path class="cls-5" d="M121.49,181l3.75-127L98.29,61.22c3.48,10,11,12.81,11,12.81l-1.61,7.86c-64.79,12.9-64.17,45.24-57,56s27.18,3.87,27.18,3.87c.32,17.07-2.27,42.17-3.35,51.85Z"/><path class="cls-6" d="M19.12,76.28l-6.18,1.66a6,6,0,0,0-4.27,7.38L40.12,202.69A6,6,0,0,0,47.51,207l6.18-1.65"/><rect class="cls-6" x="27.36" y="51.12" width="188.93" height="133.57" rx="6.03" transform="translate(-26.36 35.55) rotate(-15)"/><path class="cls-7" d="M140.47,88.66l-17.78,2.55-20.21-4.38A79.57,79.57,0,0,0,74,101.55l2.77,16,12.54,8.8c.23,11.1-1,25.26-2.46,37.8l29.66,16.07,37.26-12.59c-.12-23-1.32-42.78-1.32-42.78l3.15,2.56,10-1.5.69-15h0C160.1,103.29,151.14,94.13,140.47,88.66Z"/><path class="cls-8" d="M143.87,107.54c.25.34-44.86,3-45.12,4.34-.17.88-6.64,8.15-11.21,13.19l1.8,1.27c.23,11.1-1,25.26-2.46,37.8l13.26,7.18a232.69,232.69,0,0,0,0-43,38.49,38.49,0,0,0,6.84-6.45l3.27.52s.9,6.1,6.48,6.7,10.86-11.19,10.86-11.19a48.22,48.22,0,0,0,14.73,2s2.2,10.36,10.54,13.16c-.24-5.16-.42-8.26-.42-8.26l6.22,5.07,5.06-10.54S143.62,107.19,143.87,107.54Z"/><path class="cls-9" d="M106.48,102.52c3-2.1,6.21-3.73,9.93-2.42s-2.93,5.42-2.93,5.42Z"/><path class="cls-10" d="M163.25,109.92l-4.09-2v-1.44s4.2-.52,6.45,2.36a14,14,0,0,1,2.75,5.38s-1.61.54-1.84.28S163.25,109.92,163.25,109.92Z"/><path class="cls-11" d="M126.26,113.77s-2.7,11.68-9.32,11.68-6.23-12.23-5.75-16.47,3.4-10.8,9.32-11.5,9.41,4.35,17,5.1,10.54-3.68,17.42-3,7.76,17.38,2.79,24.43-11.06-4.1-12.11-8.54A102.68,102.68,0,0,1,126.26,113.77Z"/><path class="cls-6" d="M135.91,113.94s-5.25,29.41,9.64,38.29,31.23.67,40.9-11.1c9-10.92,19.74-14.4,30.32-10.88"/><path class="cls-12" d="M60.62,116.56l28.72,9.78c-1.81-8.87-10.55-19.53-15.31-24.79A57.09,57.09,0,0,0,60.62,116.56Z"/><path class="cls-13" d="M155.63,127.4,171,140l4.57-15.89a112.84,112.84,0,0,0-9.3-13.14C162.74,119.9,158.09,125.1,155.63,127.4Z"/><path class="cls-14" d="M153.81,172.26c0-1.56,0-3.11,0-4.64-6.06,2.46-15.48,4.95-29,5.12-18.44.24-31.45-5.12-37.94-8.6-1.37,11.69-2.95,22-3.78,27.1Z"/><path class="cls-15" d="M83.1,191.24l14.65-3.93a159.75,159.75,0,0,0,2.57-17.78,69.36,69.36,0,0,1-13.44-5.39C85.51,175.83,83.93,186.12,83.1,191.24Z"/><path class="cls-12" d="M60.62,116.56c-5.66,9.67-4.83,18.12,12.68,18.38s31.53-17.16,31.53-17.16,11.28,1.92,11.89-.65-6.1-1.88-6.1-1.88,9.89,0,10-3.1c0-1.47-1.57-1.6-1.57-1.6s1.66-.2,1.7-1.6-2-1.83-2-1.83,2.45-.62,2.45-1.76c0-1.77-6.1-1.67-9-1.41l-5.72-1.43a46.7,46.7,0,0,1-11,6.85C86.17,113.29,60.62,116.56,60.62,116.56Z"/><path class="cls-6" d="M76.21,114.15c7.14-1.28,15-3,19.3-4.78a46.7,46.7,0,0,0,11-6.85c2.77-1.93,5.71-3.47,9.06-2.68"/><path class="cls-6" d="M60.62,116.56c-5.66,9.67-4.83,18.12,12.68,18.38s31.53-17.16,31.53-17.16,11.28,1.92,11.89-.65-6.1-1.88-6.1-1.88,9.89,0,10-3.1c0-1.47-1.57-1.6-1.57-1.6s1.66-.2,1.7-1.6-2-1.83-2-1.83,2.45-.62,2.45-1.76c0-1.77-6.1-1.67-9-1.41"/><path class="cls-6" d="M118.73,107.12a21.24,21.24,0,0,1-6.71.29"/><path class="cls-6" d="M119,110.55a22.56,22.56,0,0,1-7.84.61"/><path class="cls-12" d="M178.74,140.08c-6.51,3.36-11-1.74-13.55-9.15s-2.78-8.71-2.78-8.71-6.5-1.87-6.44-3.14,5.16,0,5.16,0-6.53-2.58-6.14-4.28,6.63,1.27,6.63,1.27-7.45-2.91-6.65-5,7.76,1.9,7.76,1.9-6.76-3.43-6.43-5.43,8.2,2.26,8.2,2.26,6,4.26,8.79,8,8.32,8.06,9.06,12.41S181.64,138.58,178.74,140.08Z"/><path class="cls-6" d="M173.29,117.78c2.79,3.75,8.32,8.06,9.06,12.41s-.71,8.39-3.61,9.89c-6.51,3.36-11-1.74-13.55-9.15s-2.78-8.71-2.78-8.71-6.5-1.87-6.44-3.14,5.16,0,5.16,0-6.53-2.58-6.14-4.28,6.63,1.27,6.63,1.27-7.45-2.91-6.65-5,7.76,1.9,7.76,1.9-6.76-3.43-6.43-5.43,8.2,2.26,8.2,2.26"/><path class="cls-12" d="M119.94,83.9a81.1,81.1,0,0,0-17.46,2.93C106,90.16,112.93,95,124.82,94.7c7.45-.22,12.4-2.92,15.65-6A39.71,39.71,0,0,0,119.94,83.9Z"/><path class="cls-16" d="M109.31,63s-10.81-2.74-12-17.61S103.83,9,128.39,10.29s30.31,30.84,17.9,39.46S109.31,63,109.31,63Z"/><polygon class="cls-12" points="116.42 66.6 115.11 85.22 129.15 86.83 129.15 67.83 116.42 66.6"/><path class="cls-13" d="M115.8,75.41c2,1.57,6.3,3.7,13.35,1.65V67.83L116.41,66.6Z"/><path class="cls-12" d="M103.83,54.19S107.6,72.82,123.37,74s26.36-9.94,25-30.23c0,0-18.55-1.37-21.43-13.83,0,0-6.88,12.2-19,7.49,0,0,0,9.17-2.59,9.37s-1.5-6.21-6.66-6.67S90.7,52.36,103.83,54.19Z"/><line class="cls-6" x1="97.31" y1="47.8" x2="100.18" y2="44.86"/><path class="cls-6" d="M112.89,44.86s6-5.15,10,0"/><path class="cls-6" d="M135.53,46.33a5.3,5.3,0,0,1,7.93,0"/><path class="cls-6" d="M128.39,44.86s3.92,2.71,3.75,4.46a1.89,1.89,0,0,1-1.87,1.74"/><path class="cls-11" d="M117.59,55.23l14.89,3.05a7.05,7.05,0,0,1-8,4.62C118.9,61.94,117.59,55.23,117.59,55.23Z"/><path class="cls-17" d="M143.87,64.78a4.53,4.53,0,1,0-5.47,5.56A20.12,20.12,0,0,0,143.87,64.78Z"/><path class="cls-17" d="M110.26,67.2a4.53,4.53,0,1,0-4.67-7.65A29.42,29.42,0,0,0,110.26,67.2Z"/><circle class="cls-16" cx="97.31" cy="16.04" r="12.41"/><circle class="cls-16" cx="150.29" cy="19.11" r="12.41"/><path class="cls-6" d="M111.85,68.87A18.31,18.31,0,0,0,123.37,74c13.1.94,22.63-6.54,24.68-20.74"/><circle class="cls-6" cx="97.31" cy="16.04" r="12.41"/><path class="cls-6" d="M128.39,10.29c17.52.93,25.47,16.22,24.08,28"/></g><g id="BOY_GAMMING" data-name="BOY GAMMING"><path class="cls-2" d="M209,225.8a6.17,6.17,0,0,0-7.35,4.71L175,352.18a6.17,6.17,0,0,0,4.72,7.35l77.47,16.92c71.47-29.93,109.57-73.56,120.14-113.87Z"/><path class="cls-18" d="M363.93,243.66l19,3.34a6.19,6.19,0,0,1,5,7.16L366.28,376.8a6.18,6.18,0,0,1-7.16,5l-19-3.34Z"/><rect class="cls-3" x="206.85" y="200.71" width="136.89" height="193.63" rx="6.18" transform="translate(-65.52 516.97) rotate(-80)"/><path class="cls-4" d="M353.83,374.58,375.44,252l-.09-.13L196.88,220.39l-.12.09L175.14,343.07l.09.13L353.7,374.67Z"/><path class="cls-5" d="M308.8,240.12,279.69,235,263.56,358.77l43.95,7.75c.19-8.67,1.1-36.18,1.1-36.18s23.87-1.72,26.92-30.78-41.88-50.2-41.88-50.2l.51-3.64S305.08,250.55,308.8,240.12Z"/><path class="cls-3" d="M376.44,245.86l6.45,1.14a6.19,6.19,0,0,1,5,7.16L366.28,376.8a6.18,6.18,0,0,1-7.16,5l-6.45-1.14"/><rect class="cls-19" x="206.85" y="200.71" width="136.89" height="193.63" rx="6.18" transform="translate(-65.52 516.97) rotate(-80)"/><polygon class="cls-14" points="298.79 364.96 300.35 331.36 266.51 325.37 236.07 322.96 231.21 353.01 298.79 364.96"/><path class="cls-15" d="M288.67,334.07l-2,28.75L298.79,365l1.56-33.6-29.45-5.21A47.77,47.77,0,0,0,288.67,334.07Z"/><path class="cls-20" d="M308.2,264.4a53.07,53.07,0,0,0-17.79-11.32c-1.38,1.22-14.47,1.17-14.47,1.17l-11.46-4.89h0a110.48,110.48,0,0,0-12.57,1.29,86.18,86.18,0,0,0-20.49,6.1l-3.83,14.15,10.19,8.82,3.65.57L236.07,323c37.14,13.39,64.28,8.4,64.28,8.4l.53-10.36,1.52-29.24,10.4,4.32,11.48-9.8C321.75,279.63,316.78,272.55,308.2,264.4Z"/><path class="cls-21" d="M303,281.06l-1.41,27.27h0l.86-16.57,4.45,1.85A43.8,43.8,0,0,0,303,281.06Z"/><path class="cls-21" d="M298.51,320l-15.92-.61-13.52-10.17L258.2,288.83V277.15s-16.11,1.23-21.3,1.81l.88.76,3.65.57L240,292l11.95-2.15-7.8,14.65V310l16.12.41s1.66,14.45,22.14,21.83a91.88,91.88,0,0,0,18-.83l.53-10.36,0-.44Z"/><path class="cls-12" d="M249.6,271.77a15.29,15.29,0,0,0,4.25-2.07c1.14-1.07,4.8-4.05,6.82-1.22s-5.25,3.87-5.25,3.87Z"/><path class="cls-12" d="M237.78,279.72l-6.36-23c-12.83,5.57-22.64,13.33-22.22,18.45Z"/><path class="cls-12" d="M324.28,286.28l-21.88,5.48L300.88,321l25.24-18.26A33.19,33.19,0,0,0,324.28,286.28Z"/><path class="cls-13" d="M301.54,308.33l5.73-2.67a47.74,47.74,0,0,0-1-14.88l-3.9,1Z"/><polygon class="cls-22" points="250.18 288.52 241.43 300.82 286.09 301.81 283.14 289.81 250.18 288.52"/><path class="cls-23" d="M261,292.86l-5-.59L259.43,263a1.67,1.67,0,0,1,1.85-1.46l1.74.21a1.67,1.67,0,0,1,1.46,1.85Z"/><path class="cls-23" d="M256.27,289.81a4.9,4.9,0,0,1-4.36,4.06,7.84,7.84,0,0,0,6.29,3.56c4.35.35,6.29-2.12,6.29-2.12a4.56,4.56,0,0,1-3.16-5Z"/><path class="cls-19" d="M271.21,297.8a1.11,1.11,0,1,0-1.13,1.09A1.11,1.11,0,0,0,271.21,297.8Z"/><path class="cls-19" d="M276,297.88A1.11,1.11,0,1,0,274.9,299,1.11,1.11,0,0,0,276,297.88Z"/><path class="cls-19" d="M281,298a1.11,1.11,0,0,0-2.21,0,1.11,1.11,0,1,0,2.21,0Z"/><path class="cls-19" d="M271.28,293.48a1.11,1.11,0,1,0-1.13,1.09A1.11,1.11,0,0,0,271.28,293.48Z"/><path class="cls-19" d="M275.61,293.55a1.11,1.11,0,1,0-1.12,1.09A1.11,1.11,0,0,0,275.61,293.55Z"/><path class="cls-19" d="M279.92,293.62a1.11,1.11,0,1,0-1.13,1.09A1.11,1.11,0,0,0,279.92,293.62Z"/><polygon class="cls-23" points="241.43 300.82 241.43 305.69 286.09 307.16 286.09 301.81 241.43 300.82"/><path class="cls-19" d="M245.45,302.88s-24.2,1.07-27,22.23,38.27,30.2,61.45,22.1c20.47-7.14,54.31-29,82.1-18.68"/><line class="cls-19" x1="301.54" y1="308.33" x2="302.95" y2="281.06"/><path class="cls-12" d="M209.2,275.2c-.89,7.32,7.41,15.54,21.34,12.77s21.33-7.68,21.33-7.68a44.86,44.86,0,0,0,10.28.63c4.73-.41,5.29-2.3,4.93-3.77a2.47,2.47,0,0,0,1.18-2.16,2.17,2.17,0,0,0-1.18-1.89s1.49-2.49-.57-3.65c0,0,1.25-2.55-.4-3.17s-5.67,2.64-8.08,3.61a32.13,32.13,0,0,1-8.43,1.88s-17.19-2.9-27.23-2.41S209.2,275.2,209.2,275.2Z"/><path class="cls-19" d="M266.51,269.45a20.21,20.21,0,0,1-4.36,2.9"/><path class="cls-19" d="M267.08,273.1c-1.54,1.77-4.53,1.89-4.53,1.89"/><path class="cls-19" d="M267.08,277.15c-1.24.73-4.32.58-4.32.58"/><path class="cls-12" d="M278.56,311.51s5.67-5,3.93-6.74-4.33,2.37-6.74,2.5c0,0,3.31-9.55,1.43-10.26s-4.95,8.57-4.95,8.57.53-9.29-1.34-9.33-2,9.11-2,9.11-1.51-8.4-3.25-8.17-.67,6.16-.32,8.25c0,0-1.65-5.22-3.3-5.08s.61,8.5,2.41,11.47c4.55,7.52,17.27,18.9,38.9,15.22s22.76-24.31,22.76-24.31-9.7-2.93-27,6.9C287,316.54,278.56,311.51,278.56,311.51Z"/><path class="cls-19" d="M307.27,305.66a69,69,0,0,0-8.13,4c-12.12,6.9-20.58,1.87-20.58,1.87s5.67-5,3.93-6.74-4.33,2.37-6.74,2.5c0,0,3.31-9.55,1.43-10.26s-4.95,8.57-4.95,8.57.53-9.29-1.34-9.33-2,9.11-2,9.11-1.51-8.4-3.25-8.17-.67,6.16-.32,8.25c0,0-1.65-5.22-3.3-5.08s.61,8.5,2.41,11.47c4.55,7.52,17.27,18.9,38.9,15.22s22.76-24.31,22.76-24.31"/><path class="cls-19" d="M209.2,275.2c-.89,7.32,7.41,15.54,21.34,12.77s21.33-7.68,21.33-7.68a44.86,44.86,0,0,0,10.28.63c4.73-.41,5.29-2.3,4.93-3.77a2.47,2.47,0,0,0,1.18-2.16,2.17,2.17,0,0,0-1.18-1.89s1.49-2.49-.57-3.65c0,0,1.25-2.55-.4-3.17s-5.67,2.64-8.08,3.61"/><path class="cls-23" d="M259.19,218.1s-8.17,3.28-10.84-3.95,3.17-10.53,3.17-10.53-4.47-1.79-4.47-8.75,8.28-8,8.28-8-3.19-8.48,6.59-16.05,17.54,1.67,17.54,1.67,5.76-8,17.87-6.29,10.32,13.39,10.32,13.39,3.59-1.87,6.27.27,0,5.89,0,5.89,8.79,1.21,9.79,13.59a15.52,15.52,0,0,1-9.77,16.14,14.73,14.73,0,0,1,2.14,11.11c-1.47,6.09-10.38,5.63-10.38,5.63s.94,6.36-4.88,9.5-14-2.34-14-2.34Z"/><path class="cls-12" d="M290.41,253.08c-8.13-3.09-16.82-4.1-25.93-3.72,1,3,3.72,7,10.73,9.19S287.34,256.83,290.41,253.08Z"/><path class="cls-12" d="M272.69,238.43l-2,17.39a15.68,15.68,0,0,0,13.92,1.25s2-17.39,1.81-17.39S272.69,238.43,272.69,238.43Z"/><path class="cls-13" d="M272.69,238.43l-.76,6.58a16,16,0,0,0,14,.6c.35-3.25.61-5.93.53-5.93S272.69,238.43,272.69,238.43Z"/><path class="cls-12" d="M256.51,206.07s-5,16,5.54,28,27.32,10.44,36.51,0c4.51-5.12,6.65-9.7,7.67-14.77,0,0,8.76.13,11.53-6.93s-4-9.19-8.49-6.25-2.94,5.09-6.16,5.63-4.19-6.12-4.19-6.12-12.5,3.13-14.69-9c0,0-4.33,7.77-12.27,3.57C272,200.18,266.65,210.94,256.51,206.07Z"/><line class="cls-19" x1="309.52" y1="210.02" x2="315.01" y2="212.3"/><path class="cls-19" d="M275.64,209.66l-.2,3.34s-2.61,2.25-2.24,4.22,4.42,0,4.42,0"/><path class="cls-19" d="M261.31,211.7s3.59-3.38,7.44.73"/><path class="cls-19" d="M284,213.88s4.56-4.49,8.67.83"/><path class="cls-23" d="M269.55,224.55l17.94-2.94a10.56,10.56,0,0,1-9,7.38C271.29,229.79,269.55,224.55,269.55,224.55Z"/><path class="cls-13" d="M267.6,230.88a5.53,5.53,0,0,0-9.81-3.52,25.63,25.63,0,0,0,4.26,6.66,27.07,27.07,0,0,0,2,2A5.53,5.53,0,0,0,267.6,230.88Z"/><path class="cls-13" d="M294.7,227.87a5.54,5.54,0,0,0-1.65,10.82,24.67,24.67,0,0,0,5.51-4.67c.55-.62,1.06-1.23,1.53-1.84A5.53,5.53,0,0,0,294.7,227.87Z"/></g></svg>