<svg id="Layer_1" data-name="Layer 1" xmlns="http://www.w3.org/2000/svg" viewBox="0 0 400 400"><defs><style>.cls-1{fill:#ff99c3;}.cls-2{fill:#ff7db2;}.cls-3,.cls-7{fill:#fff;}.cls-4{fill:#ff5096;}.cls-5{fill:#282828;}.cls-6{fill:#5d2e8e;}.cls-7{fill-rule:evenodd;}.cls-8{fill:#60bb46;}</style></defs><path class="cls-1" d="M263,211.93V173.37h-6.75a10.14,10.14,0,0,0-10.13,10.13v27h10.13A16.73,16.73,0,0,1,263,211.93Z"/><path class="cls-2" d="M138.14,288.12a10.14,10.14,0,0,0,10.13,10.13h40.5v-27H138.14Z"/><path class="cls-3" d="M225.66,193.33c.37-1.24.3-2.13-.21-2.64a1.77,1.77,0,0,0-1.27-.44,4.71,4.71,0,0,0-1.37.23c-1.53.46-4.12,1.78-7.8,5.45-3.41,3.42-5.9,8.61-7.47,12.67,4.06-1.57,9.25-4.06,12.67-7.47C223.88,197.45,225.2,194.86,225.66,193.33Z"/><path class="cls-2" d="M215.77,298.25h40.5a10.13,10.13,0,0,0,10.12-10.13V271.25H215.77Z"/><path class="cls-4" d="M148.27,210.5h37.27a32.66,32.66,0,0,1-6-4.6c-3.75-3.75-6.16-7.33-7.15-10.63-1.11-3.7-.43-7,1.9-9.35s5.67-3,9.35-1.9c3.31,1,6.88,3.39,10.63,7.15,3.52,3.51,6.14,8.3,8,12.51,1.83-4.21,4.45-9,8-12.51,3.75-3.76,7.33-6.16,10.64-7.15,3.68-1.11,7-.44,9.35,1.9s3,5.66,1.9,9.35c-1,3.31-3.4,6.88-7.15,10.63a31.8,31.8,0,0,1-6,4.6h20.4V153.12A10.13,10.13,0,0,0,229.27,143H180l11.11,11.11a3.38,3.38,0,0,1,1,2.39V172l5.76,5.77-4.77,4.77-6.75-6.75a3.38,3.38,0,0,1-1-2.39V157.89l-13.5-13.5-13.5,13.5v15.48a3.38,3.38,0,0,1-1,2.39l-6.75,6.75-4.77-4.77,5.76-5.77V156.5a3.34,3.34,0,0,1,1-2.39L163.74,143H114.51a10.13,10.13,0,0,0-10.12,10.12v135a10.13,10.13,0,0,0,10.12,10.13h20.34a16.72,16.72,0,0,1-3.46-10.13V227.37A16.89,16.89,0,0,1,148.27,210.5Zm-30.38-27h-6.75v-6.75h6.75Zm0-13.5h-6.75v-6.75h6.75Zm0-13.5h-6.75v-6.75h6.75Z"/><path class="cls-3" d="M269.77,217.25h-.09a16.72,16.72,0,0,1,3.46,10.12v60.75a16.72,16.72,0,0,1-3.46,10.13h13.59V173.37h-13.5Z"/><path class="cls-2" d="M256.27,217.25h-40.5v27h50.62V227.37A10.13,10.13,0,0,0,256.27,217.25Z"/><rect class="cls-3" x="215.77" y="251" width="50.63" height="13.5"/><rect class="cls-3" x="138.14" y="251" width="50.63" height="13.5"/><rect class="cls-3" x="195.52" y="217.25" width="13.5" height="81"/><path class="cls-3" d="M189.53,195.93c-3.68-3.67-6.28-5-7.81-5.45a4.71,4.71,0,0,0-1.37-.23,1.72,1.72,0,0,0-1.26.44c-.51.51-.59,1.4-.21,2.64.46,1.53,1.77,4.12,5.45,7.8,3.42,3.42,8.61,5.9,12.66,7.47C195.43,204.54,192.94,199.35,189.53,195.93Z"/><path class="cls-2" d="M138.14,227.37v16.88h50.63v-27h-40.5A10.13,10.13,0,0,0,138.14,227.37Z"/><path class="cls-1" d="M296.77,173.37H290V298.25h6.75a10.13,10.13,0,0,0,10.12-10.13V183.5A10.13,10.13,0,0,0,296.77,173.37Z"/><path class="cls-5" d="M296.77,166.62h-4.95a22.41,22.41,0,0,0,2.33-2c2.91-2.91,4.78-5.71,5.57-8.33a7.32,7.32,0,0,0-9.49-9.48c-2.61.78-5.42,2.65-8.33,5.57a29.52,29.52,0,0,0-5.39,8,29.25,29.25,0,0,0-5.38-8c-2.91-2.92-5.71-4.79-8.33-5.57a7.32,7.32,0,0,0-9.49,9.48c.79,2.62,2.66,5.42,5.57,8.33a22.41,22.41,0,0,0,2.33,2h-4.94a16.72,16.72,0,0,0-10.13,3.46v-17a16.89,16.89,0,0,0-16.87-16.87H191.08c6.51-3,13.5-7.11,18.76-12.37,6.27-6.26,10.26-12.17,11.88-17.55,1.66-5.53.7-10.44-2.7-13.84s-8.31-4.36-13.84-2.7c-5.38,1.62-11.29,5.61-17.55,11.88-7.58,7.58-12.73,18.74-15.74,26.87-3-8.13-8.16-19.29-15.74-26.87C149.89,95.4,144,91.41,138.6,89.79c-5.53-1.66-10.45-.7-13.84,2.7s-4.36,8.31-2.7,13.84c1.61,5.38,5.61,11.29,11.88,17.55,5.26,5.26,12.25,9.35,18.76,12.37H114.51a16.89,16.89,0,0,0-16.87,16.87v135A16.89,16.89,0,0,0,114.51,305H296.77a16.89,16.89,0,0,0,16.87-16.88V183.5A16.89,16.89,0,0,0,296.77,166.62Zm-37-12.28c-.16-.54-.18-1,0-1.13a.5.5,0,0,1,.34-.09,3.06,3.06,0,0,1,.79.14c.87.26,2.73,1.11,5.5,3.88a24.27,24.27,0,0,1,4.65,7.35,25,25,0,0,1-7.35-4.65C260.89,157.07,260,155.21,259.78,154.34ZM246.14,183.5a10.14,10.14,0,0,1,10.13-10.13H263v38.56a16.73,16.73,0,0,0-6.75-1.43H246.14ZM192.4,106.44c6.81-6.81,11.76-9.29,14.72-10.18a10.88,10.88,0,0,1,3.15-.52,5.42,5.42,0,0,1,4,1.52c1.6,1.61,1.94,4,1,7.13-.88,3-3.37,7.91-10.18,14.72-7.86,7.86-20.7,13-28.15,15.47C179.41,127.14,184.52,114.32,192.4,106.44Zm-53.69,12.67c-6.81-6.81-9.29-11.76-10.18-14.72-.94-3.12-.6-5.52,1-7.13a5.42,5.42,0,0,1,4-1.52,10.88,10.88,0,0,1,3.15.52c3,.89,7.91,3.37,14.72,10.18,7.86,7.86,13,20.7,15.48,28.15C159.41,132.1,146.59,127,138.71,119.11Zm-3.86,179.14H114.51a10.13,10.13,0,0,1-10.12-10.13v-135A10.13,10.13,0,0,1,114.51,143h49.23l-11.11,11.11a3.34,3.34,0,0,0-1,2.39V172l-5.76,5.77,4.77,4.77,6.75-6.75a3.38,3.38,0,0,0,1-2.39V157.89l13.5-13.5,13.5,13.5v15.48a3.38,3.38,0,0,0,1,2.39l6.75,6.75,4.77-4.77L192.14,172V156.5a3.38,3.38,0,0,0-1-2.39L180,143h49.23a10.13,10.13,0,0,1,10.12,10.12V210.5H219a32.59,32.59,0,0,0,6-4.6c3.75-3.75,6.16-7.33,7.15-10.63,1.11-3.7.43-7-1.9-9.35s-5.67-3-9.35-1.9c-3.3,1-6.89,3.39-10.63,7.15-3.52,3.51-6.14,8.3-8,12.51a41.23,41.23,0,0,0-8-12.51c-3.75-3.76-7.33-6.16-10.64-7.15-3.68-1.11-7-.44-9.34,1.9s-3,5.66-1.91,9.35c1,3.31,3.4,6.88,7.15,10.63a32.13,32.13,0,0,0,6,4.6H148.27a16.89,16.89,0,0,0-16.88,16.87v60.75A16.72,16.72,0,0,0,134.85,298.25Zm53.92,0h-40.5a10.14,10.14,0,0,1-10.13-10.13V271.25h50.63Zm0-33.75H138.14V251h50.63Zm0-20.25H138.14V227.37a10.13,10.13,0,0,1,10.13-10.12h40.5Zm-4.44-43.12c-3.68-3.68-5-6.27-5.46-7.8-.37-1.24-.3-2.13.21-2.64a1.77,1.77,0,0,1,1.27-.44,4.71,4.71,0,0,1,1.37.23c1.53.46,4.13,1.78,7.8,5.45,3.42,3.42,5.91,8.61,7.47,12.67C192.93,207,187.74,204.54,184.33,201.13ZM209,298.25h-13.5v-81H209Zm-1.48-89.65c1.56-4.06,4.05-9.25,7.47-12.66,3.68-3.68,6.27-5,7.8-5.46a4.71,4.71,0,0,1,1.37-.23,1.77,1.77,0,0,1,1.27.44c.51.51.58,1.4.21,2.64-.46,1.53-1.78,4.12-5.46,7.8C216.79,204.54,211.6,207,207.54,208.6Zm58.85,79.52a10.13,10.13,0,0,1-10.12,10.13h-40.5v-27h50.62Zm0-23.62H215.77V251h50.62Zm0-20.25H215.77v-27h40.5a10.13,10.13,0,0,1,10.12,10.12Zm16.88,54H269.68a16.72,16.72,0,0,0,3.46-10.13V227.37a16.72,16.72,0,0,0-3.46-10.12h.09V173.37h13.5ZM282,164.49a25.19,25.19,0,0,1,4.64-7.35c2.77-2.77,4.64-3.62,5.5-3.88a3.06,3.06,0,0,1,.8-.14.5.5,0,0,1,.34.09c.13.13.11.59-.05,1.13-.26.87-1.11,2.73-3.88,5.5A24.71,24.71,0,0,1,282,164.49Zm24.86,123.63a10.13,10.13,0,0,1-10.12,10.13H290V173.37h6.75a10.13,10.13,0,0,1,10.12,10.13Z"/><rect class="cls-4" x="273.14" y="88.99" width="6.75" height="13.5"/><rect class="cls-4" x="273.14" y="109.25" width="6.75" height="6.75"/><rect class="cls-4" x="273.14" y="122.75" width="6.75" height="13.5"/><rect class="cls-4" x="286.64" y="109.25" width="13.5" height="6.75"/><rect class="cls-4" x="252.89" y="109.25" width="13.5" height="6.75"/><rect class="cls-3" x="111.14" y="163.25" width="6.75" height="6.75"/><rect class="cls-3" x="111.14" y="176.75" width="6.75" height="6.75"/><rect class="cls-3" x="111.14" y="149.75" width="6.75" height="6.75"/><path class="cls-4" d="M88,125.77a15.83,15.83,0,1,1,6.44-21.44A15.83,15.83,0,0,1,88,125.77Zm-3.15-3,2-1.1-1.63-3a10.18,10.18,0,0,0,3.14-3.19v0l-.48-.89c-.66-1.24-1.32-2.48-1.94-3.69l1.08-.75-.56-1-5.81,3.13.56,1,2.09-.86c.67,1.2,1.31,2.36,1.94,3.54l.4.74a5.05,5.05,0,0,1-1.33,1c-2.81,1.51-5.69.19-7.69-3.53a8,8,0,0,1-1.1-5.13,4.45,4.45,0,0,1,2.35-3.18,4.71,4.71,0,0,1,2.1-.57l1.83,2.22,1.48-.8-1.76-3.07h0a9,9,0,0,0-3.9.89L76.29,102l-2,1.1,1.4,2.6c-3.21,2.45-4,6.29-1.94,10s5.74,5.3,9.48,4Z"/><path class="cls-4" d="M156.5,72.36A15.82,15.82,0,1,1,177.64,65,15.84,15.84,0,0,1,156.5,72.36Zm.56-4.3,2.09,1,1.5-3.1a10.46,10.46,0,0,0,4.42.68h0l.45-.91c.61-1.26,1.23-2.52,1.85-3.73l1.23.43.51-1-5.93-2.88-.51,1.06,1.92,1.18c-.58,1.26-1.15,2.45-1.73,3.66l-.37.75a5.24,5.24,0,0,1-1.59-.49c-2.87-1.4-3.49-4.5-1.65-8.3a8,8,0,0,1,3.52-3.9,4.48,4.48,0,0,1,4,.05,4.65,4.65,0,0,1,1.69,1.36l-.73,2.79,1.52.73,1.45-3.22v0a9,9,0,0,0-3-2.64L168.91,49l-2.08-1-1.29,2.65c-3.87-1.17-7.42.48-9.28,4.31s-.93,7.75,2.34,10Z"/><path class="cls-4" d="M108.09,83.9A27,27,0,1,1,131.84,54,27,27,0,0,1,108.09,83.9ZM105,77.19l3.93-.45-.66-5.83a17.52,17.52,0,0,0,7-3.07l0,0-.19-1.72c-.27-2.37-.52-4.75-.74-7.06l2.17-.5-.22-2-11.19,1.28.23,2,3.85,0c.32,2.33.59,4.57.85,6.84l.17,1.42a8.78,8.78,0,0,1-2.74.74c-5.42.62-9.14-3.28-10-10.44-.41-3.58.11-6.63,1.5-8.83a7.64,7.64,0,0,1,5.74-3.55,8,8,0,0,1,3.69.42L109.91,51l2.86-.33-.85-6,0,0a15.43,15.43,0,0,0-6.75-1.05l-.55-4.83-3.92.45.57,5C94.58,46.13,91,51.75,91.8,59s5.73,12,12.5,12.27Z"/><path class="cls-4" d="M243.87,84.33a36.21,36.21,0,1,1,31.87-40.09A36.25,36.25,0,0,1,243.87,84.33Zm-4.17-9,5.27-.61-.89-7.82a23.45,23.45,0,0,0,9.37-4.12l.05,0-.26-2.3c-.36-3.19-.7-6.38-1-9.48l2.91-.67-.3-2.67-15,1.71.3,2.67,5.17-.06c.42,3.13.79,6.13,1.14,9.17l.22,1.91A11.76,11.76,0,0,1,243,64c-7.26.83-12.26-4.41-13.36-14-.55-4.8.15-8.89,2-11.84a10.19,10.19,0,0,1,7.7-4.76,10.83,10.83,0,0,1,5,.56l2,6.28,3.83-.44-1.14-8-.06,0a20.5,20.5,0,0,0-9-1.41l-.74-6.48-5.27.6.77,6.72c-8.9,2.48-13.74,10-12.64,19.7S229.71,67,238.79,67.34Z"/><path class="cls-4" d="M323.11,148.24a21.68,21.68,0,1,1,27.17-14.19A21.7,21.7,0,0,1,323.11,148.24Zm-.1-5.94,3,.95,1.41-4.5a14.06,14.06,0,0,0,6.13,0h0l.42-1.33c.57-1.83,1.16-3.66,1.76-5.42l1.75.34.49-1.54-8.63-2.7-.48,1.53,2.84,1.22c-.53,1.82-1,3.55-1.6,5.3l-.35,1.09a7.18,7.18,0,0,1-2.25-.34c-4.18-1.31-5.64-5.39-3.9-10.91a10.88,10.88,0,0,1,4-6,6.11,6.11,0,0,1,5.37-.74,6.63,6.63,0,0,1,2.57,1.51l-.43,3.92,2.2.69,1.32-4.66,0,0a12.34,12.34,0,0,0-4.61-3l1.17-3.72-3-1L331,116.92c-5.47-.8-10,2.14-11.7,7.71s.29,10.69,5.18,13.08Z"/><path class="cls-6" d="M73.91,309.71c-9,.94-17.06-5-24.4-10.32s-16.36-10.42-25-7.65c-6.24,2-10.46,7.67-14.26,13-3.33,4.68-6.78,9.72-7,15.45-.13,4,1.37,7.85,2.05,11.79.91,5.28.37,10.9,2.53,15.8,3.11,7.06,10.88,10.74,15.76,16.72,2.22,2.72,3.84,5.93,6.33,8.4,3,3,7.06,4.68,11,6.3,5.46,2.23,11.4,4.51,17.12,3.07,6.75-1.7,12.24-8.37,19.14-7.48,3.52.45,6.43,2.81,9.31,4.87A66.16,66.16,0,0,0,123.2,391.8c7.61.16,15.77-.89,22.39,2.88,2.25,1.28,4.47,3.14,7,2.92a7.31,7.31,0,0,0,3.41-1.4c5-3.4,7.7-9.22,9.51-15a78.28,78.28,0,0,0,3.4-29.79,5.44,5.44,0,0,0-.62-2.5,5.74,5.74,0,0,0-2.54-1.88q-8.78-4.27-17.31-9c-4.4-2.44-8.85-5-12.1-8.87-2.38-2.79-4.07-6.19-6.88-8.55-5.78-4.86-14.23-3.93-21.78-4C96.24,316.51,73.91,309.71,73.91,309.71Z"/><g id="Page-1"><g id="khalti-logo-01"><path class="cls-3" d="M84,326.91a2.72,2.72,0,0,0-1.64-1.61l-44.37-17a2.67,2.67,0,0,0-2.3.11,2.49,2.49,0,0,0-1.38,1.82l-8.51,31.66A8.2,8.2,0,0,0,27,348.06l12.13,15.26a6.15,6.15,0,0,0,2.52,1.75,6,6,0,0,0,3.05.38l19.22-3.24A7.9,7.9,0,0,0,69,358.46l14.85-29.23A3.21,3.21,0,0,0,84,326.91ZM58.16,355.73a3,3,0,0,1-3.57-2.21L51.1,338.67l-6.7,3-2,5.35a3,3,0,0,1-5.57-2.13l8.9-23.21a3,3,0,0,1,5.57,2.13l-3.83,10L64,326.41a3,3,0,1,1,2.43,5.45l-9.76,4.32s0,.06,0,.1l3.76,15.83A3.07,3.07,0,0,1,58.16,355.73Z"/><path class="cls-7" d="M149.25,363.64,141.81,383a5.12,5.12,0,0,1-6.58,2.93L70.52,361.16l1-2L136,383.91a2.94,2.94,0,0,0,3.73-1.66l7.47-19.49a2.93,2.93,0,0,0-1.66-3.73L83.64,335.29l1-2L146.35,357A5.13,5.13,0,0,1,149.25,363.64Z"/><g id="XMLID_482_-link" data-name="XMLID 482 -link"><path class="cls-7" d="M86.27,344.55A.4.4,0,0,0,86,344l-.86-.33.68-1.76,2,.76c.94.36,1.27.78.89,1.77l-2.64,6.89.94.36a1.63,1.63,0,0,0,1.28,0l3.79-2.47,2.32.88L90,352.86a5.83,5.83,0,0,1-1.12.5l0,0a1.48,1.48,0,0,1,.37,1.08l.45,3.46c0,.37.22.58.77.79l.6.23-.65,1.71-1.5-.57c-1-.38-1.22-.66-1.38-1.66L87,354.15a1.26,1.26,0,0,0-.91-.84l-.81-.31-1.93,5-2-.79Z"/></g><path class="cls-7" d="M97.35,348.85a.42.42,0,0,0-.27-.6l-.85-.33.67-1.75,2,.75c.94.37,1.22.91.88,1.81l-1.59,4.16c-.2.51-.37.84-.37.84h0a4.46,4.46,0,0,1,4.8-.86c2.48,1,3.07,2.75,2,5.49L102.89,363a.41.41,0,0,0,.27.59l.85.33-.65,1.71-2-.76a1.25,1.25,0,0,1-.85-1.89l1.87-4.88c.58-1.5.72-2.77-1-3.41A3.71,3.71,0,0,0,97.12,356a5.41,5.41,0,0,0-.71,1.35l-1.91,5-2-.78Z"/><g id="XMLID_473_-link" data-name="XMLID 473 -link"><path class="cls-3" d="M109.39,366.38c1.75.67,3.56-.7,4.15-2.24l.15-.38-.52-.2c-1.54-.59-4.3-1.6-5.07.41C107.67,364.84,108.06,365.87,109.39,366.38Zm4.34-4.28.43.17,0-.13c.71-1.84.28-2.79-1.39-3.43-.51-.2-1.8-.55-2.07.14l-.23.6-1.92-.74.41-1.07c.67-1.76,3.41-.95,4.39-.58,3.43,1.32,3.64,3.46,2.74,5.82l-1.74,4.54a.44.44,0,0,0,.24.63l.86.33-.66,1.71-1.92-.74c-1-.36-1.13-.92-.81-1.73a2.79,2.79,0,0,1,.27-.58l0,0a3.9,3.9,0,0,1-4.15.82c-1.8-.69-3.17-2.49-2.36-4.59C107.21,359.9,112,361.43,113.73,362.1Z"/></g><g id="XMLID_469_-link" data-name="XMLID 469 -link"><path class="cls-7" d="M121.63,357.76l-.94-.36.67-1.75,2,.75a1.26,1.26,0,0,1,.85,1.9l-4.3,11.22a.4.4,0,0,0,.26.59l.86.33-.66,1.71-2-.75a1.26,1.26,0,0,1-.84-1.9l4.28-11.18A.34.34,0,0,0,121.63,357.76Z"/></g><path class="cls-7" d="M126.09,364.09l-1.38-.53.63-1.62,1.41.54,1.14-3,2,.76-1.13,3,2.53,1-.63,1.63-2.48-.95-1.85,4.84a2.27,2.27,0,0,0,1.24,3.27l.52.2-.64,1.67a3.91,3.91,0,0,1-.7-.22c-1.38-.52-3.87-2-2.5-5.52l1.92-5Z"/><path class="cls-7" d="M136.37,361.35l1.28.49a.3.3,0,0,1,.16.36l-.6,1.58a.3.3,0,0,1-.36.16l-1.29-.49a.31.31,0,0,1-.15-.36l.6-1.58A.25.25,0,0,1,136.37,361.35Z"/><path class="cls-7" d="M133.58,367.6a.41.41,0,0,0-.26-.59l-.86-.33.67-1.76,2,.76a1.26,1.26,0,0,1,.85,1.9l-2.71,7.06a.41.41,0,0,0,.26.59l.86.33-.66,1.72-2-.76a1.26,1.26,0,0,1-.84-1.9Z"/><g id="XMLID_453_-link" data-name="XMLID 453 -link"><polygon class="cls-7" points="29.02 313.99 23.4 313.2 21.11 329.92 26.36 330.7 29.02 313.99"/></g><rect class="cls-3" x="16.13" y="318.14" width="17.61" height="7.57" transform="translate(-292.49 262.8) rotate(-75.02)"/></g></g><path class="cls-8" d="M312.92,307.44c4.16-1.2,8.25-2.7,12.52-3.45,12.3-2.16,25.06,2,37.35-.18,5.5-1,11.28-3.17,16.46-1.1,5.67,2.27,8.28,8.72,9.91,14.6,1.9,6.9,3.29,14.05,2.77,21.19s-3.1,14.31-8.2,19.33c-8,7.84-20.09,9-31.05,11.22-6.92,1.4-13.81,3.43-19.85,7.1s-22.1,9.68-28.62,12.85c-3.33,1.62-21.68-1.56-31.21-8-9.13-6.16-9.5-15.52-10.94-17.57-2.37-3.35-6.31-5.37-8.5-8.84-2.39-3.78-2.26-8.74-.66-12.91s4.48-7.72,7.45-11.07c7.08-8,15.81-15.75,26.45-16.52C286.8,314.09,302.89,310.35,312.92,307.44Z"/><path class="cls-3" d="M316.75,350.39a6.76,6.76,0,0,1-4.46,5.69c-.29.12-.59.2-.89.31l-.12,0a9.16,9.16,0,0,1-2.6.35,8.39,8.39,0,0,1-3.17-.65,6.34,6.34,0,0,0-.81-.26c-.28-.07-.41,0-.49.29s-.11.38-.17.55a1.14,1.14,0,0,1-.21.36.41.41,0,0,1-.73-.21c-.41-2.2-.77-4.38-1.16-6.58-.05-.36-.05-.36.29-.43.6-.14.6-.14.77.42a7.43,7.43,0,0,0,3.37,4.25,6,6,0,0,0,6.77-.65,4.09,4.09,0,0,0,1.45-4A5.4,5.4,0,0,0,312.3,346a7,7,0,0,0-2.57-1,22,22,0,0,0-2.34-.31,15.85,15.85,0,0,1-5.13-1.09,6.44,6.44,0,0,1-3.36-3.45,6.59,6.59,0,0,1-.73-3.28,6.7,6.7,0,0,1,4-6,10.94,10.94,0,0,1,5.26-.93,4.76,4.76,0,0,1,.77.12.51.51,0,0,0,.64-.29,4.46,4.46,0,0,1,.52-.71c.2-.23.38-.19.5.08s.24.7.37,1c.48,1.26,1,2.53,1.45,3.78.13.31.24.63.35.95a.31.31,0,0,1-.17.46c-.48.24-.4.29-.71-.2a9.2,9.2,0,0,0-3.51-3.27,4.83,4.83,0,0,0-3.54-.31,4.93,4.93,0,0,0-2.31,1.14,3.88,3.88,0,0,0-1.21,3.44,4.45,4.45,0,0,0,2,3.49,7,7,0,0,0,2.33.81,27.6,27.6,0,0,0,3.95.35,16.32,16.32,0,0,1,2.78.39,6.41,6.41,0,0,1,4.66,4.33A10.94,10.94,0,0,1,316.75,350.39Z"/><path class="cls-3" d="M355.71,328l.14.51c.1.36.07.41-.29.51l-.59.16a1.43,1.43,0,0,0-1.15,1.26c-.19,1.46-.4,2.91-.55,4.39-.39,3.26-.74,6.54-1.11,9.8a1,1,0,0,1-.24.54.56.56,0,0,1-.85,0,8.83,8.83,0,0,1-.69-.92l-5.7-8.4c0-.06-.14-.1-.19-.15a1.71,1.71,0,0,0-.12.23q-.72,5.43-1.42,10.84a4.33,4.33,0,0,1-.08.5.71.71,0,0,1-.56.63c-.31.07-.51-.16-.65-.38-.42-.56-.82-1.15-1.23-1.71l-7-9.76a1.34,1.34,0,0,0-1.56-.51l-.86.24c-.21.05-.33,0-.37-.23a5.71,5.71,0,0,0-.19-.71c-.09-.21,0-.32.22-.36.74-.16,1.48-.3,2.2-.52,1.23-.34,2.47-.75,3.7-1.11.38-.1.45-.08.55.29l.17.6a.23.23,0,0,1-.17.33l-.32.09a.5.5,0,0,0-.37.73,1.45,1.45,0,0,0,.18.35c1.76,2.82,3.49,5.63,5.24,8.44a.69.69,0,0,0,.18.16.85.85,0,0,0,.08-.24c.39-3.09.76-6.15,1.15-9.24a1.26,1.26,0,0,0-1.46-1.34,4.64,4.64,0,0,0-.68.19.25.25,0,0,1-.36-.2l-.16-.59c-.11-.38-.05-.49.36-.58.57-.13,1.15-.23,1.72-.38,1.26-.38,2.53-.75,3.79-1.14.4-.11.5-.09.61.34l.16.56a.26.26,0,0,1-.21.36,3.83,3.83,0,0,1-.58.16.63.63,0,0,0-.42.93c.25.43.52.85.79,1.28,1.38,2.19,2.78,4.35,4.16,6.53a2.15,2.15,0,0,0,.18.24l.08,0c0-.07,0-.16,0-.23.22-2.76.45-5.55.67-8.3a4.39,4.39,0,0,0-.09-1.3.72.72,0,0,0-1-.56c-.75.21-.64.2-.83-.47s-.18-.66.47-.8a35.22,35.22,0,0,0,4.73-1.3C355.54,327.58,355.62,327.63,355.71,328Z"/><path class="cls-3" d="M372.57,336.5s-.07.06-.1.09-.08.18-.13.26a1.49,1.49,0,0,1-1.25.8,1.1,1.1,0,0,1-1-.8,11.11,11.11,0,0,1-.59-1.58c-.73-2.59-1.43-5.18-2.16-7.77a4.67,4.67,0,0,0-.55-1.3A2.84,2.84,0,0,0,364,325a7.59,7.59,0,0,0-4.43,2,7,7,0,0,0-1.88,2.46,3.28,3.28,0,0,0-.25,2.26c.25.83.58,1,1.4.73l.1,0a1.46,1.46,0,0,0,1.08-1.67,4.4,4.4,0,0,0-.46-1.52,1,1,0,0,1,.07-.94,2.21,2.21,0,0,1,.38-.43,4.29,4.29,0,0,1,2.21-1,2,2,0,0,1,2.45,1.31,25.14,25.14,0,0,1,.93,2.9.37.37,0,0,1-.1.42c-.7.64-1.37,1.33-2.07,2s-1.56,1.34-2.32,2.07a4.14,4.14,0,0,0-1.14,1.78,4.31,4.31,0,0,0,.69,3.94,2,2,0,0,0,1.94.86,5.43,5.43,0,0,0,2.42-.91,8,8,0,0,0,2.77-3s.05,0,.05,0,.08.13.12.18a3.28,3.28,0,0,0,1.51,1.39,2.94,2.94,0,0,0,3.8-2.76C373.35,336.79,372.81,336.41,372.57,336.5Zm-5.65,1.34a4.31,4.31,0,0,1-1.6,1.68,1.76,1.76,0,0,1-2.68-1,3.22,3.22,0,0,1,.36-3,9.49,9.49,0,0,1,1.7-1.88c.44-.36.85-.78,1.29-1.21l.08.26c.34,1.24.65,2.46,1,3.69A1.74,1.74,0,0,1,366.92,337.84Z"/><path class="cls-3" d="M332.67,345.48c-.33-.06-.42,0-.49.29a5,5,0,0,1-4.72,3.67,5,5,0,0,1-4-2,9.08,9.08,0,0,1-1.85-4.37c0-.21,0-.28.23-.34l4.24-1.17,4.14-1.14a3.38,3.38,0,0,0,.51-.19.52.52,0,0,0,.34-.74,5.79,5.79,0,0,0-1.12-2,4.81,4.81,0,0,0-3.91-2,7.24,7.24,0,0,0-4.42,1.57,6.79,6.79,0,0,0-2.56,4.88,10.27,10.27,0,0,0,1.59,6.5,6.55,6.55,0,0,0,3.46,2.95,7.13,7.13,0,0,0,5.7-.46,6.33,6.33,0,0,0,3.33-4.86C333.23,345.65,333.18,345.6,332.67,345.48Zm-10.36-7.16a3.05,3.05,0,0,1,2.87-1.33,2.62,2.62,0,0,1,2,1.38,6.34,6.34,0,0,1,.46,1,.4.4,0,0,1-.18.55,2.49,2.49,0,0,1-.52.25l-5.33,1.47-.2,0A5.4,5.4,0,0,1,322.31,338.32Z"/><path class="cls-3" d="M374.71,324.55l-.32.08c-.22-.63-.41-1.25-.63-1.89h0c-.05.62-.09,1.25-.14,1.87a.47.47,0,0,1-.14.28c-.17.09-.19-.08-.26-.17-.33-.48-.63-1-1-1.43a.53.53,0,0,1-.1-.13c.15.7.28,1.34.44,2l-.3.08c-.17-.82-.35-1.64-.51-2.47.38-.19.38-.19.6.12l1,1.47c.05-.6.08-1.2.12-1.78,0-.37,0-.37.44-.44C374.17,323,374.45,323.75,374.71,324.55Z"/><path class="cls-3" d="M371.45,323.11l-.72.2.59,2.17-.32.09-.6-2.17-.72.2-.08-.28,1.77-.49A1.29,1.29,0,0,0,371.45,323.11Z"/><path class="cls-3" d="M363.85,351.22c0,.16,0,.24-.14.26l-.16,0c-.18.07-.26,0-.31-.15-.15-.55-.28-1.1-.44-1.62a5.89,5.89,0,0,0-.29-.8.62.62,0,0,0-.65-.38.7.7,0,0,0-.71.48,1.66,1.66,0,0,0,0,.77,19.35,19.35,0,0,0,.55,2c.07.27-.08.29-.25.31s-.31.13-.36-.14c-.15-.61-.31-1.2-.5-1.8a2.25,2.25,0,0,0-.3-.72.76.76,0,0,0-1-.19.72.72,0,0,0-.41.87c.2.75.38,1.48.61,2.23.08.3-.1.28-.29.36s-.28,0-.34-.21c-.26-1-.57-2.05-.84-3.06-.1-.34-.1-.34.25-.42l.19,0c.08.13.13.24.22.41a1.35,1.35,0,0,1,1-.83,1,1,0,0,1,1.17.4,2.9,2.9,0,0,1,.12-.28,1.27,1.27,0,0,1,1.67-.65,1.51,1.51,0,0,1,.72,1C363.48,349.78,363.66,350.51,363.85,351.22Z"/><path class="cls-3" d="M309,362.62c0,.61,0,1.2,0,1.77s0,1.28,0,1.92c0,.15,0,.26-.2.31s-.32.11-.45-.12l-1.4-2.26-.13-.14c0,.09,0,.15,0,.2,0,.9,0,1.77,0,2.67,0,.22-.12.25-.28.32s-.27,0-.36-.14c-.6-1-1.22-2-1.82-3a1.51,1.51,0,0,1-.09-.18s.05,0,.07,0c.5-.18.5-.18.76.3l1.16,2.07.05,0,0-.12.06-2.63c0-.21.12-.25.29-.29s.27,0,.36.14l1.42,2.31s0,.05.1.12c0-.17,0-.28,0-.41,0-.78,0-1.58-.08-2.35,0-.26.06-.34.31-.39A1.37,1.37,0,0,1,309,362.62Z"/><path class="cls-3" d="M320.62,359.42c0,.53,0,1,0,1.51,0,.74,0,1.47,0,2.21,0,.17,0,.27-.22.3s-.3.1-.42-.11c-.47-.76-.94-1.52-1.43-2.28l-.13-.16c0,.49,0,.94,0,1.38s0,1,0,1.49c0,.24-.13.26-.29.3s-.25.05-.36-.12c-.6-1-1.22-2-1.82-3a1.54,1.54,0,0,1-.1-.19,3.55,3.55,0,0,1,.51-.14c.06,0,.15.09.19.14L317.7,363s0,.06,0,.08l.06,0c0-.3,0-.59,0-.89,0-.59,0-1.21.05-1.8,0-.22.07-.28.27-.34a.3.3,0,0,1,.4.18c.47.78,1,1.56,1.49,2.33l0-.17c0-.83-.05-1.66-.1-2.49,0-.26.06-.41.32-.42A.74.74,0,0,0,320.62,359.42Z"/><path class="cls-3" d="M341.06,353.8c0,.39,0,.74,0,1.09,0,.87,0,1.74,0,2.59,0,.17,0,.28-.24.31s-.3.08-.43-.12c-.45-.77-.93-1.51-1.4-2.25,0-.06-.07-.09-.13-.18a1.22,1.22,0,0,0,0,.22c0,.9,0,1.79,0,2.69a.23.23,0,0,1-.23.26c-.13,0-.25.13-.37-.05-.64-1.07-1.3-2.12-2-3.22a3.53,3.53,0,0,1,.55-.15c.06,0,.13.09.17.16.45.77.89,1.57,1.35,2.36a.83.83,0,0,1,0-.15l.06-2.63a.27.27,0,0,1,.27-.29c.16,0,.26-.07.38.12.47.76.93,1.5,1.4,2.24l.14.2c0-.36,0-.64,0-.92,0-.61,0-1.21-.07-1.83,0-.24.06-.34.29-.36Z"/><path class="cls-3" d="M314.83,361c0,.52,0,1,0,1.51,0,.74,0,1.46,0,2.2,0,.17,0,.25-.22.3s-.3.1-.42-.1l-1.41-2.27a.69.69,0,0,0-.15-.15c0,.37,0,.71,0,1,0,.61,0,1.21,0,1.82,0,.22-.1.26-.28.31s-.27.06-.38-.11c-.6-1-1.22-2-1.83-3,0-.06,0-.1-.09-.19a4.71,4.71,0,0,1,.48-.14c.06,0,.17.07.21.12.42.76.85,1.51,1.28,2.28,0,0,0,.06.08.15a1,1,0,0,0,0-.2l.06-2.63c0-.19.12-.2.26-.24s.25-.12.37.07q.72,1.17,1.47,2.34s0,.05.08.13V364c0-.86-.07-1.74-.09-2.61a.4.4,0,0,1,.16-.21A1.77,1.77,0,0,1,314.83,361Z"/><path class="cls-3" d="M374.23,345.18a1.32,1.32,0,0,0-2,.32,1.25,1.25,0,0,1-.14.21l-.14-.2c-.1-.28-.28-.14-.44-.09s-.08.19-.05.29l1.21,4.39c.12.45.12.43.56.3.16,0,.21-.1.15-.25l-.22-.81-.22-.77.2.08a1.38,1.38,0,0,0,1.95-1A2.72,2.72,0,0,0,374.23,345.18Zm.21,2.27a.94.94,0,0,1-1.06.88.68.68,0,0,1-.67-.55l-.19-.69c-.06-.22-.15-.46-.2-.71a.89.89,0,0,1,.06-.49.9.9,0,0,1,1.45-.18A2.15,2.15,0,0,1,374.44,347.45Z"/><path class="cls-3" d="M345.41,353.69a1.07,1.07,0,0,0-.65-.72,1.8,1.8,0,0,0-2,.73.7.7,0,0,0-.07.69,2.12,2.12,0,0,0,.52-.17s0-.2.09-.28a1,1,0,0,1,.26-.33.81.81,0,0,1,1.33.48c.05.2,0,.32-.21.36a3.22,3.22,0,0,0-.78.24,2.66,2.66,0,0,0-.8.57,1,1,0,0,0-.07,1.08.91.91,0,0,0,.9.6,1.44,1.44,0,0,0,1.29-.7,1.77,1.77,0,0,1,.17-.24c.27.51.32.52.78.3l-.4-1.43C345.63,354.47,345.53,354.09,345.41,353.69Zm-1.13,2.66a.56.56,0,0,1-.58-.15.57.57,0,0,1-.11-.62.82.82,0,0,1,.57-.53l.57-.15c.34-.1.34-.1.44.27S344.8,356.27,344.28,356.35Z"/><path class="cls-3" d="M325.18,360.26c.63-.15,1.27-.35,1.92-.53.16,0,.21-.1.14-.26s-.12-.38-.2-.57a1.29,1.29,0,0,0-1.32-.92,1.54,1.54,0,0,0-1.46,1,2.39,2.39,0,0,0,0,1.54,1.76,1.76,0,0,0,3,.85c.34-.27.33-.37,0-.64a0,0,0,0,1,0,0l-.21.21a1.16,1.16,0,0,1-2-.34C324.91,360.4,325,360.32,325.18,360.26Zm-.4-.65a1.07,1.07,0,0,1,.51-1,.86.86,0,0,1,1.22.66.27.27,0,0,1-.13.17c-.23.08-.46.12-.7.19l-.65.18C324.83,359.85,324.77,359.81,324.78,359.61Z"/><path class="cls-3" d="M333.58,358l1.45-.4c.71-.2.73-.2.45-.89a1.32,1.32,0,0,0-1.09-1,1.55,1.55,0,0,0-1.5.56,2,2,0,0,0-.33,1.55c.19,1,.88,2,2.13,1.74a1.77,1.77,0,0,0,1.27-.82c-.14-.12-.23-.22-.34-.3-.14.12-.24.24-.34.33a1.12,1.12,0,0,1-1.86-.44C333.32,358.1,333.35,358,333.58,358Zm.49-1.75a.93.93,0,0,1,.83.73s0,.14-.06.15l-1.6.44A1,1,0,0,1,334.07,356.2Z"/><path class="cls-3" d="M356.68,350.73a1.64,1.64,0,0,0-3.08.72,2.68,2.68,0,0,0,.34,1.39,1.64,1.64,0,0,0,3.12-.75c0-.24-.07-.48-.09-.72S356.78,351,356.68,350.73Zm-.3,1.81a.79.79,0,0,1-.66.7.88.88,0,0,1-.94-.26,2.2,2.2,0,0,1-.51-1.84.89.89,0,0,1,.65-.73.84.84,0,0,1,.93.29,6.54,6.54,0,0,1,.52.86A8,8,0,0,1,356.38,352.54Z"/><path class="cls-3" d="M370.74,349.34c0,.15,0,.22-.15.24l-.2.06c-.16.06-.24,0-.28-.16l-.58-2.11c-.14-.48-.37-.7-.72-.71a1,1,0,0,0-1,.69.66.66,0,0,0,0,.34l.62,2.23c.05.2,0,.3-.19.33l-.15,0c-.17.07-.25,0-.3-.18l-.88-3.17c0-.16-.05-.27.16-.31s.38-.17.45.14c0,.08.06.14.08.22l.1,0a.88.88,0,0,1,0-.16,1.35,1.35,0,0,1,1.37-.77,1,1,0,0,1,.93.79C370.31,347.68,370.52,348.51,370.74,349.34Z"/><path class="cls-3" d="M331.38,360.21a1.89,1.89,0,0,1-2.23.35.72.72,0,0,1-.39-.63,3.57,3.57,0,0,1,.4-.12c.06,0,.19,0,.2.1a1,1,0,0,0,1.57-.06.48.48,0,0,0-.32-.76c-.27-.06-.55,0-.82-.06a4.05,4.05,0,0,1-.78-.09.88.88,0,0,1-.56-1.24,1.64,1.64,0,0,1,2.25-.66.83.83,0,0,1,.17.15,2.67,2.67,0,0,1,.2.42,3.12,3.12,0,0,1-.49.18s-.1-.06-.14-.11a.84.84,0,0,0-1.27,0,.73.73,0,0,0-.13.53.45.45,0,0,0,.41.34c.27,0,.53,0,.77,0a6.33,6.33,0,0,1,.64.06A1,1,0,0,1,331.38,360.21Z"/><path class="cls-3" d="M352.71,353.33a1,1,0,0,1-.1.77A1.59,1.59,0,0,1,351,355a1.54,1.54,0,0,1-1.35-1,3.05,3.05,0,0,1-.27-1.52,1.66,1.66,0,0,1,2.44-1.17,1.28,1.28,0,0,1,.53.75.46.46,0,0,0-.21.08c-.2.07-.33.07-.46-.16a.77.77,0,0,0-.9-.34.83.83,0,0,0-.71.65,2.26,2.26,0,0,0,.55,2,.81.81,0,0,0,.88.21.92.92,0,0,0,.67-.64C352.24,353.39,352.26,353.37,352.71,353.33Z"/><path class="cls-3" d="M323.09,362.33c.09.31.09.31-.24.39s-.32.09-.41-.23-.09-.32.24-.41S323,362,323.09,362.33Z"/><path class="cls-3" d="M348.32,355.39c.08.3.08.3-.24.39s-.33.09-.43-.28-.08-.3.26-.39S348.22,355,348.32,355.39Z"/><path class="cls-3" d="M366.07,350.5c.09.32.09.32-.24.41s-.3.08-.39-.24-.09-.32.22-.41S366,350.15,366.07,350.5Z"/><path class="cls-3" d="M296.31,348.7,291.47,350c-.18.05-.26,0-.29-.16-.08-.39-.21-.77-.31-1.13s-.29-.9-.35-1.36c.06-.08.15-.07.26-.09l4.8-1.33a1.52,1.52,0,0,0,.28-.09c-.2-.47-.39-.94-.6-1.41a15.18,15.18,0,0,0-2.57-3.64,14.91,14.91,0,0,0-4.59-3.26,14.64,14.64,0,0,0-6.85-1.28,14.48,14.48,0,0,0-5.38,1.36,14.24,14.24,0,0,0-7,6.94,14.62,14.62,0,0,0,.24,13.39,14.73,14.73,0,0,0,15.11,7.87l.21,0s0,0,0,0l.21-.06a1.19,1.19,0,0,1,.26-.05s0,0,.05,0l.43-.1,1.35-.37a1.71,1.71,0,0,0,.38-.13s0,0,0,0h0a.65.65,0,0,1,.23-.09c.39-.17.8-.33,1.18-.52a14.57,14.57,0,0,0,4-2.88,14.74,14.74,0,0,0,2.06-2.64,14.83,14.83,0,0,0,2.2-7.68,14.38,14.38,0,0,0-.17-2.37C296.62,348.62,296.64,348.61,296.31,348.7ZM289.05,353a8.22,8.22,0,0,1-.85,3.61,6.53,6.53,0,0,1-3.78,3.25,7.87,7.87,0,0,1-3.56.55,7.15,7.15,0,0,1-3.72-1.65,11.67,11.67,0,0,1-3.82-8.11,7.66,7.66,0,0,1,1.93-5.24,9.17,9.17,0,0,1,3.83-2.25,5.21,5.21,0,0,1,5.23,1.37,6.09,6.09,0,0,1,1.37,1.69c.28.53.24.76-.29,1.06a12.7,12.7,0,0,1-1.64.84c-2.33,1.08-5.05,2.24-7.39,3.3-.11.05-.18.12-.12.25a8.62,8.62,0,0,0,4.11,5.4,5.22,5.22,0,0,0,6.72-1.79,4.92,4.92,0,0,0,.92-2.51c0-.25.14-.35.4-.33h.16C289,352.5,289.05,352.53,289.05,353Z"/><path class="cls-8" d="M288.53,352.45h-.16c-.26,0-.39.09-.4.33a5,5,0,0,1-.92,2.52,5.23,5.23,0,0,1-6.72,1.78,8.65,8.65,0,0,1-4.11-5.39c0-.14,0-.2.12-.26,2.34-1.05,5.06-2.21,7.39-3.29.67-.32,1-.47,1.64-.84s.56-.55.29-1.07a6.48,6.48,0,0,0-1.37-1.68,5.21,5.21,0,0,0-5.23-1.37,9.09,9.09,0,0,0-3.83,2.25,7.56,7.56,0,0,0-1.93,5.23,10.38,10.38,0,0,0,1.29,4.83,9.61,9.61,0,0,0,2.53,3.28,7.17,7.17,0,0,0,3.72,1.66,8.34,8.34,0,0,0,3.56-.55,6.39,6.39,0,0,0,3.77-3.26A8.09,8.09,0,0,0,289,353C289.05,352.53,289,352.5,288.53,352.45ZM276.18,350a7.06,7.06,0,0,1,0-2.51,3.69,3.69,0,0,1,2-2.63,2.77,2.77,0,0,1,3.63.8,4.59,4.59,0,0,1,.72,1.11.49.49,0,0,1-.16.52,2.2,2.2,0,0,1-.78.48c-1.72.78-3.42,1.55-5.13,2.35C276.27,350.22,276.22,350.21,276.18,350Z"/><path class="cls-3" d="M282.54,346.79a.51.51,0,0,1-.16.52,2.2,2.2,0,0,1-.78.48c-1.72.78-3.42,1.55-5.14,2.35-.17.07-.24.07-.25-.15a7.06,7.06,0,0,1,0-2.51,3.69,3.69,0,0,1,2-2.63,2.78,2.78,0,0,1,3.63.81A7.8,7.8,0,0,1,282.54,346.79Z"/></svg>