<svg xmlns="http://www.w3.org/2000/svg" xmlns:xlink="http://www.w3.org/1999/xlink" viewBox="0 0 400 400"><defs><style>.cls-1{fill:none;}.cls-2{isolation:isolate;}.cls-3{clip-path:url(#clip-path);}.cls-4{fill:#ff7db2;}.cls-5{fill:#ff5096;}.cls-6{fill:#160575;}.cls-7{fill:#2b099e;}.cls-8{fill:#ff227c;}.cls-9{fill:#fc1d82;}.cls-10{fill:#191919;}.cls-11{fill:#d80062;}.cls-12{fill:#00003c;}.cls-13{fill:#ff277f;}.cls-14{fill:#0d0d6a;}.cls-15{fill:#910038;}.cls-16{fill:#ffbbd7;}.cls-17{fill:#ffa298;}.cls-18{fill:#fff;}.cls-19{fill:#ffd2c0;}.cls-20{fill:#f58e00;}.cls-21{fill:#606060;}.cls-22{fill:#5441f3;}.cls-23{opacity:0.35;}.cls-24{fill:#ff99c3;}.cls-25{fill:#ffc200;}.cls-26{fill:#37ecc5;}.cls-27{fill:#ff0080;}.cls-28{fill:#d3005c;}.cls-29,.cls-30{opacity:0.2;}.cls-30{mix-blend-mode:multiply;}</style><clipPath id="clip-path"><circle class="cls-1" cx="200" cy="200" r="200"/></clipPath></defs><g class="cls-2"><g id="Layer_1" data-name="Layer 1"><g class="cls-3"><rect class="cls-4" x="-0.16" y="0.36" width="400" height="400"/><rect class="cls-5" x="125.44" y="0.36" width="274.4" height="400"/><rect class="cls-6" x="16.64" y="35.08" width="27.52" height="8.32"/><rect class="cls-6" x="44.16" y="43.4" width="27.52" height="8.32"/><rect class="cls-7" x="350.42" y="51.72" width="27.52" height="8.32"/><rect class="cls-8" x="65.12" y="120.36" width="27.52" height="8.32"/><rect class="cls-8" x="37.6" y="128.68" width="27.52" height="8.32"/><rect class="cls-8" x="152.22" y="60.04" width="27.52" height="8.32"/><rect class="cls-8" x="179.74" y="68.36" width="27.52" height="8.32"/><rect class="cls-8" x="256.8" y="21.64" width="27.52" height="8.32"/><rect class="cls-8" x="229.28" y="29.96" width="27.52" height="8.32"/><path class="cls-9" d="M300.19,277.09c0-.09,0-.07.15.14a3.33,3.33,0,0,1,.24.52.36.36,0,0,1,0,.11A3.41,3.41,0,0,1,300.19,277.09Zm22.44,18.64c-3.94-2.56-7.76-5.2-11.31-7.91-2.08-1.6-4.08-3.22-5.86-4.82a47.75,47.75,0,0,1-3.49-3.46,1,1,0,0,0,.14-.5,1,1,0,0,0-.17-.6l.12-.35c.67-2,1.58-4.26,2.61-6.59s2.18-4.73,3.4-7.14q1.5-3,3.12-6a23.39,23.39,0,0,0,5,1.72s1.21-2,3.09-5.27a1.09,1.09,0,0,0,.54-.63,1.28,1.28,0,0,0,.05-.38l.08-.14q.58,2.62,1.16,5.34C323.06,268.44,323.15,281.74,322.63,295.73ZM375.7,150.3a9.46,9.46,0,0,1,1.42-1.8,8.49,8.49,0,0,1,1-.84c.2-.15.39-.29.6-.42a10.05,10.05,0,0,1,1.06-.61l.07,0a9.6,9.6,0,0,1,4.07-.92h16V110.63h-3.63q-4.65,0-9.28,0a38,38,0,0,0-7.63.76,23.53,23.53,0,0,0-2.79-4.6s6.34,2,9.07-2.13-11.29-6.53-11.29-6.53,9-2.73,5.12-7c-2.75-3-8-1.54-10.84-.42-3.06-4.23-7.21-7.67-12.78-8.76-10.74-2.1-16.65,3.73-16.9,4a1.07,1.07,0,0,0,0,1.51,1.15,1.15,0,0,0,.64.3c-.16.19-.24.3-.24.3s-8.89-10-15.27-5.25c-5.28,3.88.48,12,.48,12s-9.67-6.18-11.83.31c-1.56,4.69,5.61,9,9.72,11.09a.69.69,0,0,0-.16.18c-5.78,8.22-1,17.35.8,20.29l-.13.18a13.25,13.25,0,0,0-2.08,5.73c-.88,5.59,1.14,12.12,5.64,15.44a10.89,10.89,0,0,0,5,2.05c.06.2.12.38.17.57a16.22,16.22,0,0,0,9.74,10.66c-4.31,7.22-9.69,12.26-21.08,19.63a29.39,29.39,0,0,0-8.91,8.33c-3.79,1.7-9.43,5.44-14,13.52-4.2,7.46-11.07,19.44-15.36,26.92a1,1,0,0,0-.48.32,1,1,0,0,0-.22.9l-3.18,5.52s.92.73,2.49,1.93c-1.71,3.63-3.38,7.33-5,11.13-1.24,2.94-2.44,5.92-3.57,9.06s-2.23,6.4-3.18,10.06c-.47,1.85-.92,3.8-1.27,6.05l-.12.87-.06.43-.06.47-.1.93c0,.3-.05.66-.07,1l0,.51v.25l0,.45c0,.72,0,1.39,0,2.07a25,25,0,0,0,.49,3.68,24.38,24.38,0,0,0,.87,3.09,27.43,27.43,0,0,0,1,2.57,31.69,31.69,0,0,0,2.26,4,41.81,41.81,0,0,0,4.47,5.59,67.21,67.21,0,0,0,5.79,5.41H263a6.94,6.94,0,1,0,0,13.87h19.77V333.4h28.26v-8.94c2.16,1.15,4.33,2.26,6.52,3.35l3.3,1.63c-.69,13.84-3.89,52.41-3.45,70.92h82.41l0-235.53h-2.63c-6.66-1.76-13-3.07-17.06-3.84l-2.13-.4-1.21-.21a.67.67,0,0,1,0-.1l-1.62-9c.08-.19.18-.37.27-.56Z"/><rect class="cls-10" x="152.14" y="324.2" width="28.25" height="18.49"/><path class="cls-10" d="M174.83,316.67H132.36a6.93,6.93,0,0,0-6.93,6.93h0a6.94,6.94,0,0,0,6.93,6.94h42.47a6.94,6.94,0,0,0,6.93-6.94h0A6.93,6.93,0,0,0,174.83,316.67Z"/><path class="cls-11" d="M201.37,340.42h140.2c-1.23-37-3.62-80.37,1.88-98,9.6-30.74,21.6-47.5,0-61.47s-21.59-19.56-33.59-47.5c-8.62-20.09-24.68-22.85-33-22.82q-4.63,0-9.28,0h-2c-8.49.09-24,3.16-32.47,22.81-12,27.94-12,33.52-33.59,47.5s-9.6,30.73,0,61.47C205,260.05,202.6,303.46,201.37,340.42ZM246.46,148.5a9.54,9.54,0,0,1,6.77-2.81h22.58a9.57,9.57,0,0,1,0,19.14H253.23a9.56,9.56,0,0,1-6.77-16.33Z"/><rect class="cls-12" x="335.71" y="321.47" width="28.25" height="18.49"/><path class="cls-12" d="M358.39,313.93H315.93a6.94,6.94,0,0,0-6.94,6.94h0a6.94,6.94,0,0,0,6.94,6.93h42.46a6.94,6.94,0,0,0,6.94-6.93h0A6.94,6.94,0,0,0,358.39,313.93Z"/><path class="cls-13" d="M191.53,340.42H331.72c-1.22-37-3.62-80.37,1.89-98,9.6-30.74,21.6-47.5,0-61.47S312,161.38,300,133.44c-8.44-19.65-24-22.72-32.48-22.81h-2q-4.64,0-9.28,0c-8.35,0-24.41,2.73-33,22.82-12,27.94-12,33.52-33.6,47.5s-9.6,30.73,0,61.47C195.15,260.05,192.76,303.46,191.53,340.42ZM246.46,148.5a9.54,9.54,0,0,1,6.77-2.81h22.58a9.57,9.57,0,0,1,0,19.14H253.23a9.56,9.56,0,0,1-6.77-16.33Z"/><path class="cls-14" d="M253.23,164.83h-8.38a9.57,9.57,0,0,1,0-19.14h8.38a9.57,9.57,0,1,0,0,19.14Z"/><path class="cls-15" d="M245.06,160.19s32.3,5.24,44.55,13.61c16.57,11.31,12.35,72.21,16,99s13,72.62,9.17,84.49-102.09,15.55-121.16,6.79c-10-4.62,3.14-74.81-3.24-105.06s-14.49-50.78-11.94-63.8c2.07-10.58,33.85-24.07,33.85-24.07Z"/><path class="cls-16" d="M307.45,339.23a1.21,1.21,0,0,1-1.2-1.16c0-.11-.45-11.69-2.65-29.51a492.34,492.34,0,0,0-13.4-68.68,1.2,1.2,0,1,1,2.31-.63A496.9,496.9,0,0,1,306,308.3c2.2,17.91,2.65,29.57,2.66,29.68a1.2,1.2,0,0,1-1.15,1.24Z"/><polygon class="cls-16" points="222.76 218.96 257.69 211.75 238.82 245.18 261.13 240.52 232.83 283.54 234.93 258.19 216.32 262.03 222.76 218.96"/><path class="cls-16" d="M265.45,312.34c-10.55-.95-22.06-5-34-12a140.65,140.65,0,0,1-23.94-17.83A1.06,1.06,0,0,1,209,281a137.49,137.49,0,0,0,23.58,17.54c12.62,7.41,31.37,15.25,49,10.49a1.07,1.07,0,0,1,.56,2.06A47.09,47.09,0,0,1,265.45,312.34Z"/><path class="cls-16" d="M261.69,330.24a65.83,65.83,0,0,1-26.39-8.34,59.65,59.65,0,0,1-12.61-9.28,1.06,1.06,0,1,1,1.53-1.48c.18.18,17.76,18.06,44.94,17.2a1.06,1.06,0,1,1,.07,2.12A60.12,60.12,0,0,1,261.69,330.24Z"/><path class="cls-16" d="M230.6,186.48c-9.42-.85-16.42-7.63-16.74-7.95a1.06,1.06,0,0,1,0-1.5,1.07,1.07,0,0,1,1.51,0c.11.12,8.07,7.8,17.88,7.42,5.61-.22,10.8-3,15.43-8.32a1.06,1.06,0,1,1,1.6,1.4c-5,5.77-10.74,8.81-17,9.05A22.07,22.07,0,0,1,230.6,186.48Z"/><path d="M196.22,126.91s-5.8-4.88-6-11.29,4.25-8.17,4.25-8.17S179.87,101.61,182,95.12s11.83-.31,11.83-.31-5.76-8.16-.49-12c6.39-4.71,15.28,5.25,15.28,5.25s4.28-6.27,15-3,12.4,6.54,12.4,6.54,8.84-4.7,12.71-.42-5.12,7-5.12,7,14,2.45,11.29,6.53-9.08,2.13-9.08,2.13a28.71,28.71,0,0,1,3.89,26.94c-5.54,15.7-9.9,15.2-9.9,15.2S218.88,119.35,196.22,126.91Z"/><path class="cls-17" d="M206.1,130.05s-3.91-7.86-10.35-4.92-3.17,25.37,9.52,22.66Z"/><path class="cls-16" d="M202.27,150.2a11.08,11.08,0,0,1-6.46-2.17c-4.49-3.32-6.51-9.85-5.63-15.44a13.39,13.39,0,0,1,2.07-5.73,5.41,5.41,0,0,1,4.21-2.61Z"/><path class="cls-18" d="M193.78,128.07a1.07,1.07,0,0,1-.75-.42c-.09-.11-8.42-11.35-1.45-21.26a1.07,1.07,0,1,1,1.74,1.23c-6.08,8.65,1.33,18.64,1.41,18.74a1.08,1.08,0,0,1-.95,1.71Z"/><path class="cls-10" d="M195.81,148c-4.49-3.32-6.51-9.85-5.63-15.44a13.39,13.39,0,0,1,2.07-5.73C191.71,131.31,191.42,140.07,195.81,148Z"/><path class="cls-19" d="M246.15,160.28s1.31,6.54-10.33,12.61c-8.28,4.31-12.54,2.67-17,1.16A24.57,24.57,0,0,1,216,172.9c.09-9.81-2.79-15.58-3.56-16.94-.12-.21-.19-.31-.19-.31l29-22.69Z"/><path d="M239.27,146.57s-3.39,22.92-20.41,27.48A24.57,24.57,0,0,1,216,172.9c.09-9.81-2.79-15.58-3.56-16.94Z"/><path class="cls-19" d="M229,160.28c-12.81,5.19-24.54,1.53-28-9.63-.85-2.7-1.77-6.65-2.63-10.79l0-.13-.54-2.66c-.13-.65-.26-1.29-.38-1.93C196,127.73,194.87,121,194.87,121,193.2,102.21,210.08,91.81,226,96s14.7,27.62,16.78,38.57S240,155.83,229,160.28Z"/><path d="M203.51,157.54a.32.32,0,0,1-.25-.11.34.34,0,0,1,0-.48l2.39-2.23a.35.35,0,0,1,.47.51l-2.4,2.22A.33.33,0,0,1,203.51,157.54Z"/><path d="M211.22,162.17a.42.42,0,0,1-.16,0,.35.35,0,0,1-.15-.47l1.56-2.94a.34.34,0,0,1,.46-.14.34.34,0,0,1,.14.46L211.52,162A.34.34,0,0,1,211.22,162.17Z"/><path d="M208.68,157.84a.34.34,0,0,1-.23-.08.34.34,0,0,1,0-.48l2.18-2.52a.34.34,0,1,1,.51.45l-2.17,2.52A.38.38,0,0,1,208.68,157.84Z"/><path d="M225.16,160a.34.34,0,0,1-.31-.22l-1.16-2.94a.33.33,0,0,1,.19-.44.33.33,0,0,1,.44.19l1.16,2.94a.33.33,0,0,1-.19.44A.28.28,0,0,1,225.16,160Z"/><path d="M204.92,151.74a.34.34,0,0,1-.25-.11.35.35,0,0,1,0-.49L207,149a.34.34,0,0,1,.48,0,.34.34,0,0,1,0,.48l-2.34,2.12A.35.35,0,0,1,204.92,151.74Z"/><path d="M218.58,161.82a.34.34,0,0,1-.33-.24l-1-3.17a.34.34,0,0,1,.23-.43.32.32,0,0,1,.42.23l1,3.17a.35.35,0,0,1-.23.43Z"/><path d="M200.86,150.61a.33.33,0,0,1-.3-.18.33.33,0,0,1,.13-.46l2.74-1.54a.34.34,0,0,1,.33.59L201,150.56A.33.33,0,0,1,200.86,150.61Z"/><path d="M239.06,152.59a.38.38,0,0,1-.21-.07l-2.6-2a.34.34,0,0,1-.07-.48.35.35,0,0,1,.48-.07l2.6,2a.34.34,0,0,1,.07.48A.35.35,0,0,1,239.06,152.59Z"/><path d="M231.84,157.94a.32.32,0,0,1-.28-.15L229.72,155a.35.35,0,0,1,.1-.48.34.34,0,0,1,.47.1l1.84,2.77a.35.35,0,0,1-.1.48A.32.32,0,0,1,231.84,157.94Z"/><path d="M233.94,153.39a.33.33,0,0,1-.23-.09L231.29,151a.35.35,0,0,1,.48-.5l2.41,2.29a.35.35,0,0,1,0,.49A.33.33,0,0,1,233.94,153.39Z"/><path d="M237.08,147a.31.31,0,0,1-.2-.07L234.34,145a.34.34,0,0,1,.41-.55l2.54,1.88a.34.34,0,0,1-.21.62Z"/><path d="M241,145.42a.32.32,0,0,1-.14,0L238,144.13a.34.34,0,0,1-.17-.45.35.35,0,0,1,.45-.18l2.87,1.27a.34.34,0,0,1-.13.65Z"/><path class="cls-17" d="M219.2,149.69a3.42,3.42,0,0,0,.36-.29.6.6,0,0,0,0-.86.61.61,0,0,0-.86,0,3.86,3.86,0,0,1-3.79.76.61.61,0,0,0-.42,1.15A5,5,0,0,0,219.2,149.69Z"/><path class="cls-18" d="M211.23,147.33s-5.22-1.14-5-4.79c.09-1.33,7-1.24,9.41-1.88,3-.8,7.26-4.77,8.33-4,4.84,3.23-1.85,8.38-1.85,8.38A11.62,11.62,0,0,1,211.23,147.33Z"/><path d="M240.84,114.24s-4.75-21.91-20.18-22.87S189.33,104,195.72,126c0,0,1.63-1.28,1.63-4.88s-.86-13.19,5.13-16.27,8.91,6.34,14.39,5.48-1.2-9.25-1.2-9.25,12.16,9.25,14.38,6.51S226.46,99,226.46,99s6.85,6.16,7.53,9.59-6.16,12.5-3.94,15.92,5.82-1.88,5.82-1.88-3.76,13.53,1.2,15.75,5.65-14.21,5.65-14.21Z"/><path class="cls-17" d="M234.29,130.08c.18,1.37-2.43,2.83-5.83,3.26s-6.29-.33-6.46-1.69,2.44-2.83,5.83-3.26S234.12,128.71,234.29,130.08Z"/><path class="cls-17" d="M199.9,139.74c-.53.07-1.05.1-1.54.12l0-.13-.54-2.66c-.13-.65-.26-1.29-.38-1.93a14.62,14.62,0,0,1,1.86-.35c3.4-.44,6.28.32,6.46,1.69S203.3,139.31,199.9,139.74Z"/><path d="M211.87,138.75a.67.67,0,0,1-.31,0c-3.43-1.45-4.23-2.42-4.35-2.6a.6.6,0,0,1-.06-.58l3-7.43,0-.07c.71-1.28.41-3.59,0-6.25a.61.61,0,1,1,1.2-.19c.46,2.86.76,5.37-.11,7l-2.84,7a14.5,14.5,0,0,0,3.61,2,.61.61,0,0,1-.16,1.16Z"/><path class="cls-19" d="M237.21,120s2.6-6.89,9.45-5.13,7.61,24.41-5.37,24Z"/><path d="M242.24,130.62h-.13a.61.61,0,0,1-.55-.66c0-.29.68-7,6.29-9.08a.62.62,0,0,1,.78.36.6.6,0,0,1-.36.78c-4.89,1.81-5.5,8-5.5,8A.62.62,0,0,1,242.24,130.62Z"/><path d="M247.2,127.57a.59.59,0,0,1-.44-.11s-1.39-1-3-2a.61.61,0,0,1-.2-.84.62.62,0,0,1,.84-.2c1.64,1,3,2,3.07,2.09a.61.61,0,0,1-.29,1.09Z"/><path d="M219.84,127.15c-.39-.91-1-1.49-1.52-1.34s-.82,1.33-.46,2.6a.75.75,0,0,0,0,.16,3.33,3.33,0,0,1-.89-1.78c-.26-1.33.15-2.53.91-2.67s1.58.81,1.84,2.13A4.08,4.08,0,0,1,219.84,127.15Z"/><path d="M205.13,130.32c-.4-.92-1-1.49-1.52-1.35s-.83,1.34-.47,2.61l.05.16a3.4,3.4,0,0,1-.89-1.78c-.25-1.33.15-2.53.91-2.68s1.59.81,1.84,2.14A4.77,4.77,0,0,1,205.13,130.32Z"/><path d="M218.74,111.69s4.95.63,6.38,4.22c1.32,3.3-1.9,3.39-2.79,2.17a9.37,9.37,0,0,0-4.63-3.35C215.55,113.91,216.89,111.36,218.74,111.69Z"/><path d="M202.29,114.19s-4.8,1.34-5.7,5.09c-.82,3.46,2.37,3.09,3.08,1.75a9.37,9.37,0,0,1,4.1-4C205.77,115.92,204.07,113.59,202.29,114.19Z"/><path class="cls-10" d="M244.44,112.62a4.46,4.46,0,0,0-4.32-2.3c-3.74.22-3.73,10.64-2.79,16.55s3.5,12.91,6.5,13.65,2.81-4.7,2.81-4.7Z"/><path class="cls-16" d="M252.32,133a12.08,12.08,0,0,1-8.23,5.25s-7.61-14.38-3.16-26.49a11,11,0,0,1,7.6,1.32c2.18,1.36,4.22,3.89,5.13,8.52C254.7,126.94,253.86,130.57,252.32,133Z"/><path class="cls-18" d="M228.4,151.4a1.07,1.07,0,0,1,0-2.13c14.25-.57,17.35-18.69,17.38-18.87a1.08,1.08,0,0,1,1.23-.88,1.06,1.06,0,0,1,.88,1.22c0,.2-3.44,20-19.4,20.66Z"/><rect x="221.85" y="148.4" width="9.1" height="3.51" rx="1.45" transform="translate(14.41 -19.74) rotate(5.16)"/><path class="cls-18" d="M245.12,114.91a1,1,0,0,1-1-.93c0-.27-3.24-26.79-19.43-30-9.64-1.88-14.92,3.33-15,3.39a1.06,1.06,0,1,1-1.51-1.5c.24-.25,6.15-6.08,16.9-4,17.71,3.47,21,30.65,21.13,31.81a1.05,1.05,0,0,1-.94,1.17A.74.74,0,0,1,245.12,114.91Z"/><path class="cls-10" d="M252.32,133c-4.94-7.63-4.39-16.1-3.79-19.92,2.18,1.36,4.22,3.89,5.13,8.52C254.7,126.94,253.86,130.57,252.32,133Z"/><path class="cls-18" d="M229.91,205.2a18.52,18.52,0,0,1-2.47-.38c-15.62-3.34-13.77-34-13.68-35.34a1.07,1.07,0,0,1,1.13-1h0a1.07,1.07,0,0,1,1,1.13c0,.31-1.82,30.16,12,33.12,4.68,1,8.43.18,11.47-2.53,10.74-9.58,8-39,8-39.32a1.07,1.07,0,0,1,1-1.16,1.05,1.05,0,0,1,1.16,1c.12,1.26,2.84,30.83-8.7,41.11A13.8,13.8,0,0,1,229.91,205.2Z"/><path class="cls-19" d="M309.29,188l1.51,2.1,1.45,2.05,2.86,4.09c1.89,2.73,3.76,5.46,5.62,8.22,3.71,5.5,7.35,11.05,10.92,16.7s7.07,11.38,10.46,17.31,6.67,12,9.73,18.71a99.17,99.17,0,0,1,4.31,11.06,51.35,51.35,0,0,1,1.74,7.21,33.68,33.68,0,0,1,.44,4.95c0,.23,0,.49,0,.75v.38l0,.43c0,.35,0,.71-.07,1.05s-.07.67-.11,1a24.67,24.67,0,0,1-.74,3.59,28.1,28.1,0,0,1-2.21,5.45,34.6,34.6,0,0,1-2.44,3.91,46,46,0,0,1-4.79,5.62,80,80,0,0,1-9.17,7.84c-3,2.24-6,4.25-9,6.15s-6,3.66-9,5.36-6,3.33-9,4.9q-2.26,1.19-4.56,2.32l-2.31,1.13-2.43,1.17a14.66,14.66,0,0,1-13.74-25.88l.46-.27,1.87-1.08,2-1.16c1.31-.79,2.62-1.58,3.92-2.39q3.9-2.43,7.67-5c2.51-1.7,5-3.43,7.3-5.19s4.6-3.55,6.65-5.34a48.48,48.48,0,0,0,5.18-5.18,10.57,10.57,0,0,0,1.33-1.89c.1-.2.12-.31.05-.25a2.75,2.75,0,0,0-.44.95,7.87,7.87,0,0,0-.28,1.21c0,.13,0,.27-.05.4s0,.29,0,.44l0,.35c0,.31,0,.3-.07.13-.1-.34-.36-1.2-.73-2.16a69.31,69.31,0,0,0-3.16-6.82c-2.58-4.93-5.73-10.1-9-15.22s-6.85-10.26-10.47-15.35-7.36-10.16-11.16-15.19q-2.85-3.76-5.75-7.5l-2.91-3.71-1.45-1.83-1.41-1.76-.09-.11a19.59,19.59,0,1,1,30.55-24.53C308.86,187.45,309.1,187.77,309.29,188Z"/><path class="cls-12" d="M303.55,294.9s17,9.38,14.86,28.47c-1.06,2.91-6.21,5.46-8.75,5.12,0,0,3-18.51-12.59-27.83C297.07,300.66,298.5,295.6,303.55,294.9Z"/><path class="cls-17" d="M324.51,280.53a1.06,1.06,0,0,1-.07-2.11c.35-.06,8.84-1.39,13.74-.66a1.06,1.06,0,0,1,.9,1.21,1.08,1.08,0,0,1-1.21.9c-4.59-.7-13,.63-13.1.65A1.15,1.15,0,0,1,324.51,280.53Z"/><path class="cls-17" d="M326.2,280.12a1.11,1.11,0,0,1-.48-.17,1.08,1.08,0,0,1-.31-1.48,18,18,0,0,1,7-6,1.07,1.07,0,0,1,.86,1.95h0a16,16,0,0,0-6.13,5.24A1.08,1.08,0,0,1,326.2,280.12Z"/><path class="cls-15" d="M264.34,197.75l40.08,55.65A108.41,108.41,0,0,0,340,221.68S319.28,191,301.61,180.13,265,175.91,264.34,197.75Z"/><path class="cls-16" d="M301.49,253.42a1.06,1.06,0,0,1-.76-.43l-26.42-35.57a1.07,1.07,0,1,1,1.71-1.27l26.42,35.57a1.07,1.07,0,0,1-.22,1.49A1.09,1.09,0,0,1,301.49,253.42Z"/><path class="cls-16" d="M282,227.18l-.28-.06-9.05-3.43a1.06,1.06,0,1,1,.75-2l9.06,3.43a1.06,1.06,0,0,1-.48,2.05Z"/><path class="cls-16" d="M302,247.69a1.06,1.06,0,0,1-.47-2c.26-.16,26.25-16.81,33.71-29.45a1.05,1.05,0,0,1,1.45-.38,1.06,1.06,0,0,1,.38,1.46c-7.71,13.08-33.31,29.48-34.4,30.17A1.08,1.08,0,0,1,302,247.69Z"/><path class="cls-19" d="M203.24,221l-1.12,1.68L201,224.4,198.64,228q-2.31,3.59-4.57,7.22c-3,4.83-5.93,9.7-8.74,14.57s-5.49,9.77-7.92,14.6c-1.21,2.41-2.36,4.81-3.39,7.14s-1.94,4.6-2.62,6.59c-.33,1-.59,1.88-.76,2.53l-.16.67,0,0v0h0v-.19c0-.34,0-.65,0-1a8.92,8.92,0,0,0-.22-1.5,7.16,7.16,0,0,0-.29-1,4.63,4.63,0,0,0-.24-.52c-.13-.21-.19-.23-.16-.14a6.12,6.12,0,0,0,.9,1.39,38.94,38.94,0,0,0,4.38,4.52c1.78,1.6,3.77,3.22,5.86,4.82,4.19,3.19,8.75,6.3,13.44,9.28,2.34,1.49,4.73,3,7.13,4.39,1.21.72,2.41,1.42,3.62,2.12l1.81,1,1.72,1,.36.21a14.66,14.66,0,0,1-13.36,26.08l-2.21-1-2.11-1-4.16-2.05q-4.12-2.06-8.23-4.26c-5.46-2.94-10.89-6.06-16.33-9.61-2.73-1.78-5.45-3.67-8.21-5.79a71.35,71.35,0,0,1-8.47-7.55,41.81,41.81,0,0,1-4.48-5.59,33,33,0,0,1-2.25-4,27.39,27.39,0,0,1-1.05-2.57,26.22,26.22,0,0,1-.86-3.09,23.74,23.74,0,0,1-.49-3.68c0-.68,0-1.35,0-2.07l0-.45,0-.26,0-.5c0-.34,0-.7.08-1l.1-.94,0-.46.06-.43.13-.87c.35-2.25.79-4.2,1.26-6,1-3.67,2-6.93,3.18-10.07s2.34-6.12,3.57-9.06c2.47-5.85,5.09-11.46,7.79-17s5.48-10.92,8.34-16.28q2.15-4,4.34-8l2.22-4,1.13-2,1.19-2.07a19.59,19.59,0,1,1,34,19.54c-.21.36-.43.72-.66,1.07Z"/><path class="cls-17" d="M156.9,281.19a1.05,1.05,0,0,1-.92-.77,1.07,1.07,0,0,1,.72-1.32c4.78-1.37,13.36-1.16,13.72-1.15a1.06,1.06,0,0,1,1,1.09,1.08,1.08,0,0,1-1.1,1c-.08,0-8.61-.21-13.07,1.07A1,1,0,0,1,156.9,281.19Z"/><path class="cls-17" d="M168.56,279.89a1.08,1.08,0,0,1-.71-.37,16,16,0,0,0-6.76-4.39,1.06,1.06,0,0,1,.59-2,17.9,17.9,0,0,1,7.78,5,1.07,1.07,0,0,1-.9,1.76Z"/><path class="cls-15" d="M184.94,187.91s-10.61,1.42-18.19,14.88c-6.46,11.48-19.23,33.66-19.23,33.66s27.36,21.61,38,23.64c0,0,20.32-34.11,23.52-45.36S203.68,183.42,184.94,187.91Z"/><path class="cls-20" d="M188.4,250.64a1.06,1.06,0,0,1-1-.88c0-.28-4.69-27.95-8.59-40a1.06,1.06,0,1,1,2-.66c4,12.2,8.62,40,8.67,40.31a1.08,1.08,0,0,1-.88,1.22A.82.82,0,0,1,188.4,250.64Z"/><path class="cls-20" d="M188,254.93l-.23,0c-14.07-4.38-35.82-22.59-36.74-23.36a1.06,1.06,0,0,1,1.37-1.63c.22.19,22.34,18.7,36,22.95a1.08,1.08,0,0,1,.7,1.34A1.07,1.07,0,0,1,188,254.93Z"/><path class="cls-18" d="M276.25,338.53c-16.63,5.37-9-13.08-12.63-14.4-1.69-.61-4.8-.53-7.65-.26a121.29,121.29,0,0,1-12.5.53c-2.86,0-6,.17-7.6.92-3.51,1.63,5.68,19.35-11.35,15.43-12.13-2.8-14.88-17.63-15.46-25.92A5.48,5.48,0,0,1,214.3,309l69.42-3a5.49,5.49,0,0,1,5.72,5.4C289.57,319.7,288.1,334.7,276.25,338.53Z"/><rect class="cls-21" x="214.84" y="312.14" width="16.46" height="5.5" rx="1.38" transform="translate(-13.27 9.83) rotate(-2.45)"/><rect class="cls-21" x="215.96" y="320.07" width="14.88" height="4.97" rx="1.25" transform="translate(-13.6 9.86) rotate(-2.45)"/><rect class="cls-21" x="267.18" y="309.9" width="16.46" height="5.5" rx="1.38" transform="translate(-13.13 12.07) rotate(-2.45)"/><rect class="cls-21" x="268.3" y="317.83" width="14.88" height="4.97" rx="1.25" transform="translate(-13.45 12.09) rotate(-2.45)"/><path class="cls-19" d="M235.58,317.11c-.54.27-4.26,1.52-4.89,1.86,1.24-.33,6-.86,6.45-.61,1.91,1,.27,4-3.58,6.51.61-.17,1-.16,1.06.14.23,1-2,3.81-5.16,6.39,1.78,0,3.38.68-.11,4.07-5,4.82-15,4.86-18.6,4.29s-9.1-4.57-9.1-4.57l-4.18-3.11c-2.51-1.82-9.16-8.34-1-25.07a32.65,32.65,0,0,1,14-6.58c8-1.43,14,1.32,18.06,2.71s4.11,4.23,2.54,5.11l-18,.91s-4.21.27-3.95,6.33,18.22-4.05,24.94-3.82S239.11,315.34,235.58,317.11Z"/><path class="cls-10" d="M194.76,295.73s-17,9.38-14.85,28.47c1.05,2.91,5.85,4.65,8.39,4.3,0,0-2.66-17.68,12.94-27C201.24,301.49,199.81,296.43,194.76,295.73Z"/><path class="cls-17" d="M221.4,322.38a.64.64,0,0,1,0-1.27,34.73,34.73,0,0,0,9.62-2.84.65.65,0,0,1,.86.28.64.64,0,0,1-.28.86,35.41,35.41,0,0,1-10,3Z"/><path class="cls-17" d="M220.79,329.12a.63.63,0,0,1-.58-.54.65.65,0,0,1,.55-.73c.08,0,8.22-1.17,12.32-3.27a.64.64,0,0,1,.86.28.63.63,0,0,1-.28.85c-4.29,2.2-12.38,3.36-12.73,3.41Z"/><path class="cls-17" d="M222.33,334.42a.64.64,0,0,1,0-1.27,21.81,21.81,0,0,0,7-2.38.64.64,0,1,1,.58,1.14,22.32,22.32,0,0,1-7.52,2.51Z"/><path class="cls-19" d="M262.2,316c.57.23,4.37,1.15,5,1.43-1.26-.22-6-.34-6.48,0-1.82,1.13.07,4,4.13,6.18-.62-.12-1-.07-1.05.23-.14,1.05,2.33,3.63,5.69,5.92-1.77.16-3.31,1,.46,4.05,5.36,4.37,15.32,3.56,18.9,2.68s8.64-3.86,8.64-3.86l2.45-1.82c3.91-.74,7.36-13.84-2.17-29.82,0,0-3.86-3-12-3.71s-13.86,2.51-17.76,4.25-3.73,4.56-2.1,5.3l18-.62s4.23-.1,4.48,6-18.5-2.48-25.17-1.68S258.53,314.5,262.2,316Z"/><path class="cls-17" d="M275.25,319.83a32.49,32.49,0,0,1-8.37-1.78.64.64,0,0,1,.46-1.19,34.75,34.75,0,0,0,9.86,1.82.64.64,0,1,1,0,1.27C277.09,320,276.36,319.93,275.25,319.83Z"/><path class="cls-17" d="M275.82,326.4a43.74,43.74,0,0,1-10.43-2,.64.64,0,0,1,.46-1.19c4.3,1.66,12.59,2.08,12.68,2.08a.63.63,0,0,1,.6.67.64.64,0,0,1-.66.61C278.35,326.59,277.31,326.54,275.82,326.4Z"/><path class="cls-17" d="M276.5,332a24.72,24.72,0,0,1-6.71-1.66.64.64,0,0,1-.37-.82.65.65,0,0,1,.83-.37,21.46,21.46,0,0,0,7.26,1.63.64.64,0,0,1,.65.63.65.65,0,0,1-.63.65S277.13,332,276.5,332Z"/><path class="cls-5" d="M179,400.36c-1.23-6.14,9.17-7.92,9.17-7.92s18-.11,61.06-33c-24.49-8.9-39.38-11.64-57.54-21.4-39.24,19.45-69.91,33.42-75.92,51.91-.88,2.72-.4,6.26,1.16,10.42Z"/><path class="cls-12" d="M341.57,340.42s5.71,49.53-9.69,59.94H273.06S277.17,320,341.57,340.42Z"/><path class="cls-4" d="M294.27,400.36c45.42-23.21,20.37-62.6,20.37-62.6-9.25,2.62-30.93,7.05-45.88,10a165.5,165.5,0,0,0-32.45,9.91c-31.29,13.22-43.47,21.58-56.49,35.95a13.58,13.58,0,0,0-2.78,6.75Z"/><path class="cls-22" d="M273.38,400.36c5-1.61,10.07-3.46,15.17-5.59,11.2-4.69,18.79-11.84,22.54-21.26,6.67-16.77-1-34.59-1.39-35.34a.85.85,0,0,0-1.55.69c.08.18,7.76,17.94,1.35,34-3.58,9-10.85,15.81-21.61,20.31a197.8,197.8,0,0,1-20.3,7.16Z"/><g class="cls-23"><polygon class="cls-24" points="407.22 0 407.22 234.08 218.4 298.76 132.46 254.19 40.48 206.49 132.46 143.36 349.78 0 407.22 0"/></g><path class="cls-10" d="M203.51,301.93H46.05A14.23,14.23,0,0,1,32.28,289.6L24.08,219A10.76,10.76,0,0,1,35,206.7H192.44A14.23,14.23,0,0,1,206.2,219l8.21,70.56A10.76,10.76,0,0,1,203.51,301.93Z"/><path class="cls-12" d="M51,302H61a0,0,0,0,1,0,0v.2a1.56,1.56,0,0,1-1.56,1.56H52.6A1.56,1.56,0,0,1,51,302.16V302A0,0,0,0,1,51,302Z"/><path class="cls-12" d="M64.48,302H74.4a0,0,0,0,1,0,0v.2a1.56,1.56,0,0,1-1.56,1.56H66a1.56,1.56,0,0,1-1.56-1.56V302A0,0,0,0,1,64.48,302Z"/><path class="cls-16" d="M42.75,216.06H183.28c6.95,0,13.2,5.81,14,13l5.92,55c.77,7.17-4.23,13-11.18,13H51.46c-6.94,0-13.2-5.81-14-13l-5.92-55C30.8,221.87,35.8,216.06,42.75,216.06Z"/><ellipse class="cls-10" cx="108.41" cy="247.54" rx="11.12" ry="12.21" transform="translate(-145.51 155.06) rotate(-46.34)"/><path class="cls-16" d="M127.3,267.5H97.08A6.27,6.27,0,0,0,91,272.43L78.27,330.16a6.28,6.28,0,0,0,6.13,7.62h30.23a6.27,6.27,0,0,0,6.12-4.93l12.68-57.73A6.28,6.28,0,0,0,127.3,267.5Zm-19.2,41-3.45,15.73a1.72,1.72,0,0,1-1.67,1.34H94.74a1.71,1.71,0,0,1-1.67-2.07l3.45-15.74a1.71,1.71,0,0,1,1.67-1.34h8.24A1.71,1.71,0,0,1,108.1,308.46Z"/><path class="cls-10" d="M124.74,267.5H94.52a6.27,6.27,0,0,0-6.13,4.93L75.71,330.16a6.28,6.28,0,0,0,6.13,7.62h30.23a6.27,6.27,0,0,0,6.12-4.93l12.68-57.73A6.28,6.28,0,0,0,124.74,267.5Zm-19.2,41-3.45,15.73a1.72,1.72,0,0,1-1.67,1.34H92.18a1.71,1.71,0,0,1-1.67-2.07L94,307.72a1.71,1.71,0,0,1,1.67-1.34h8.24A1.71,1.71,0,0,1,105.54,308.46Z"/><path class="cls-10" d="M148,337.78H53.85v-7.44a1,1,0,0,1,1-1H147a1,1,0,0,1,1,1Z"/><rect class="cls-10" x="-0.16" y="337.8" width="400" height="35.84"/><rect class="cls-16" x="-0.16" y="355.72" width="400" height="4.16"/><rect class="cls-16" x="-0.16" y="337.8" width="400" height="6.4"/><path class="cls-25" d="M17.28,285.8v2.4h-6a1.2,1.2,0,0,1-1.2-1.2,1.24,1.24,0,0,1,.35-.85,1.19,1.19,0,0,1,.85-.35Z"/><path class="cls-26" d="M17.28,313.32v2.4h-6a1.2,1.2,0,0,1-1.2-1.2,1.24,1.24,0,0,1,.35-.85,1.19,1.19,0,0,1,.85-.35Z"/><path class="cls-26" d="M17.28,305.48v2.4h-6a1.2,1.2,0,0,1-1.2-1.2,1.24,1.24,0,0,1,.35-.85,1.19,1.19,0,0,1,.85-.35Z"/><path class="cls-26" d="M17.28,321.16v2.4h-6a1.2,1.2,0,0,1-1.2-1.2,1.24,1.24,0,0,1,.35-.85,1.19,1.19,0,0,1,.85-.35Z"/><path class="cls-26" d="M17.28,329v2.4h-6a1.2,1.2,0,0,1-1.2-1.2,1.24,1.24,0,0,1,.35-.85,1.19,1.19,0,0,1,.85-.35Z"/><rect class="cls-27" x="369.52" y="266.6" width="1.9" height="29.67" transform="translate(-1.65 2.19) rotate(-0.34)"/><rect class="cls-18" x="370.12" y="266.6" width="0.7" height="29.67" transform="translate(-1.65 2.19) rotate(-0.34)"/><path class="cls-28" d="M369.43,266.61a.34.34,0,0,0,.33.33H371a.33.33,0,0,0,.33-.33Z"/><polygon class="cls-16" points="353.17 284.6 353.46 288.51 354 296.12 354.45 302.34 355 309.88 355.45 316.17 355.99 323.65 356.45 330 356.45 330.01 356.96 337.15 382.77 337.21 383.23 331.29 383.67 325.64 384.16 319.39 384.6 313.78 385.08 307.49 385.52 301.92 386.01 295.6 386.44 290.06 386.86 284.69 353.17 284.6"/><polygon class="cls-18" points="375.14 284.66 386.01 295.6 386.44 290.06 381.03 284.68 375.14 284.66"/><polygon class="cls-18" points="362.35 284.63 385.08 307.49 385.52 301.92 368.16 284.64 362.35 284.63"/><polygon class="cls-18" points="353.17 284.6 353.46 288.51 384.16 319.39 384.6 313.78 355.28 284.61 353.17 284.6"/><polygon class="cls-18" points="354 296.12 354.45 302.34 383.23 331.29 383.67 325.64 354 296.12"/><polygon class="cls-18" points="355 309.88 355.45 316.17 376.36 337.2 382.46 337.21 355 309.88"/><polygon class="cls-18" points="355.99 323.65 356.45 330 356.45 330.01 363.57 337.17 369.59 337.18 355.99 323.65"/><rect class="cls-15" x="351.27" y="282.47" width="37.5" height="2.18" rx="0.97" transform="translate(739.31 568.06) rotate(-179.85)"/><path class="cls-18" d="M353.18,282.42l33.69.09a4.58,4.58,0,0,0-.6-2.27,4.63,4.63,0,0,0-.72-.93,4.52,4.52,0,0,0-3.19-1.34l-24.64-.06a4.52,4.52,0,0,0-3.93,2.25A4.57,4.57,0,0,0,353.18,282.42Z"/><g class="cls-29"><path d="M353.18,282.42l33.69.09a4.58,4.58,0,0,0-.6-2.27l-32.48-.08A4.57,4.57,0,0,0,353.18,282.42Z"/></g><g class="cls-30"><path class="cls-12" d="M357,337.15l25.81.06,4.09-52.52-22.39-.06s12.47,4.78,12.43,20C376.82,331.81,357,337.15,357,337.15Z"/></g></g></g></g></svg>