<svg id="Layer_1" data-name="Layer 1" xmlns="http://www.w3.org/2000/svg" xmlns:xlink="http://www.w3.org/1999/xlink" viewBox="0 0 400 400"><defs><style>.cls-1,.cls-15,.cls-17,.cls-23{fill:none;}.cls-2{clip-path:url(#clip-path);}.cls-3{fill:#ccc;}.cls-4{fill:#ffbbd7;}.cls-5{fill:#282828;}.cls-6{fill:#191919;}.cls-7{fill:#e2e2e2;}.cls-8{fill:#6e6e6e;}.cls-9{fill:#333;}.cls-10{fill:#ff7db2;}.cls-11{fill:#910038;}.cls-12{fill:#faa68c;}.cls-13{fill:#ef8367;}.cls-14{fill:#534741;}.cls-15{stroke:#ef8367;stroke-width:1.24px;}.cls-15,.cls-17,.cls-23{stroke-linecap:round;stroke-miterlimit:10;}.cls-16{fill:#ff7bac;opacity:0.3;}.cls-17{stroke:#534741;stroke-width:2.13px;}.cls-18{fill:#1a1a1a;}.cls-19{fill:#ffce00;}.cls-20{clip-path:url(#clip-path-2);}.cls-21{fill:#fbb03b;}.cls-22{fill:#fff;}.cls-23{stroke:#fbb03b;stroke-width:0.77px;}</style><clipPath id="clip-path"><circle class="cls-1" cx="200" cy="200" r="200"/></clipPath><clipPath id="clip-path-2"><rect id="SVGID" class="cls-1" x="289.91" y="144.85" width="77.72" height="48.5"/></clipPath></defs><g class="cls-2"><polygon class="cls-3" points="-47.54 260.39 -47.54 434.63 -4.69 434.63 100.66 383.05 315.12 383.05 420.47 434.63 463.33 434.63 463.33 260.39 -47.54 260.39"/><rect class="cls-4" x="-47.54" y="179.2" width="510.87" height="71.38"/><rect class="cls-5" x="-47.54" y="250.58" width="510.87" height="19.64"/><path class="cls-6" d="M154.55,52.49H374.91A8.13,8.13,0,0,1,383,60.63V207.54a1.31,1.31,0,0,1-1.31,1.31h-234a1.31,1.31,0,0,1-1.31-1.31V60.63A8.13,8.13,0,0,1,154.55,52.49Z"/><path class="cls-5" d="M374.73,52.49H236.13L357.5,208.86h24.2a1.34,1.34,0,0,0,1.34-1.34V60.8A8.31,8.31,0,0,0,374.73,52.49Z"/><rect class="cls-7" x="119.38" y="216.61" width="290.7" height="6.15"/><path class="cls-8" d="M410.08,222.75H119.38a4.28,4.28,0,0,0,4.27,4.28H405.8a4.28,4.28,0,0,0,4.28-4.28Z"/><polygon class="cls-3" points="383.04 208.86 146.42 208.86 119.38 216.6 410.08 216.6 383.04 208.86"/><polygon class="cls-9" points="358.25 208.86 264.73 208.86 171.21 208.86 161.82 213.39 264.73 213.39 367.64 213.39 358.25 208.86"/><rect class="cls-10" x="151.83" y="62.1" width="225.79" height="140.5"/><path class="cls-11" d="M290.83,202.74c-4.74-15.49-10.75-29.33-18.25-30.05l-15.38,2.83-15.36-2.83c-7.57.73-13.61,14.56-18.38,30.05Z"/><path class="cls-12" d="M272.58,172.69a7.31,7.31,0,0,1-7.31,7.3H249.14a7.31,7.31,0,0,1-7.31-7.3,5.06,5.06,0,0,0,5.07-5.06V156.35h20.61v11.28a5,5,0,0,0,1.48,3.58A5.1,5.1,0,0,0,272.58,172.69Z"/><path class="cls-13" d="M267.51,156.35V164a26.33,26.33,0,0,1-20.61,0v-7.64Z"/><circle class="cls-13" cx="230.38" cy="133.05" r="8.37" transform="translate(47.8 326.55) rotate(-76.67)"/><circle class="cls-13" cx="284.02" cy="133.05" r="8.37" transform="translate(-23.02 69.07) rotate(-13.33)"/><path class="cls-12" d="M283.34,119.85V135.7a26.14,26.14,0,1,1-52.27,0V119.85c0-.21,0-.42,0-.61a26.13,26.13,0,0,1,26.13-25.53,26.44,26.44,0,0,1,12.58,3.23,24.39,24.39,0,0,1,2.64,1.67,25.32,25.32,0,0,1,5.87,5.81,25.91,25.91,0,0,1,5,14.32C283.33,119.11,283.34,119.48,283.34,119.85Z"/><path class="cls-14" d="M248.55,126.88c0,2.25-1.36,4.08-3.05,4.08s-3-1.83-3-4.08,1.36-4.09,3-4.09S248.55,124.62,248.55,126.88Z"/><path class="cls-14" d="M272,126.88c0,2.25-1.37,4.08-3,4.08s-3.05-1.83-3.05-4.08,1.36-4.09,3.05-4.09S272,124.62,272,126.88Z"/><path class="cls-15" d="M248.55,142.07a10.37,10.37,0,0,0,17.31,0"/><path class="cls-13" d="M261,137.47c0,1.15-1.71,2.08-3.81,2.08s-3.81-.93-3.81-2.08,1.7,0,3.81,0S261,136.31,261,137.47Z"/><ellipse class="cls-16" cx="239.52" cy="135.48" rx="4.57" ry="3.32"/><ellipse class="cls-16" cx="274.89" cy="135.48" rx="4.57" ry="3.32"/><path class="cls-17" d="M249,118.68a6.75,6.75,0,0,0-10.83,2.92"/><path class="cls-17" d="M265.42,118.68a6.75,6.75,0,0,1,10.83,2.92"/><path class="cls-14" d="M228.18,110.44h2.89V131h0a2.89,2.89,0,0,1-2.89-2.89Z"/><path class="cls-14" d="M286.23,110.44h-2.89V131h0a2.89,2.89,0,0,0,2.89-2.89Z"/><path class="cls-14" d="M278.3,104.42a25.32,25.32,0,0,0-5.87-5.81,24.39,24.39,0,0,0-2.64-1.67,26.44,26.44,0,0,0-12.58-3.23,26.13,26.13,0,0,0-26.13,25.53c14.85-.68,27.6-6.33,34.36-14.4a9.26,9.26,0,0,0,5.27,2.36,13.37,13.37,0,0,0,12.61,11.54A25.91,25.91,0,0,0,278.3,104.42Z"/><path class="cls-14" d="M231.07,119.85c-18.53,0-22.78-32-5.54-35.23,0,0-6.07-10.85,4.09-15.11s12.21,10.64,12.21,10.64-1.19-11.53,9.46-11.41,5.92,12.9,5.92,12.9,20.15-9.36,26.13,7c15-1.92,13.49,30.55,0,30.07l-8.43-13.68-17.74-5.32Z"/><circle class="cls-18" cx="258.53" cy="57.63" r="2.9"/><circle class="cls-9" cx="258.53" cy="57.63" r="1.89"/><path class="cls-18" d="M259.67,57.63a1.15,1.15,0,1,1-1.14-1.14A1.15,1.15,0,0,1,259.67,57.63Z"/><path class="cls-12" d="M307.42,176a4.75,4.75,0,0,0-1.49.53c-.39-1.29-.83-2.58-1.3-3.86l3-1.26c.71,1.5,1.36,3,2,4.58A6.21,6.21,0,0,0,307.42,176Z"/><path class="cls-12" d="M275,239.4c-2.87.12-12.3,13.17-13.68,12s16.44-20.58,17-22.32c1.13-3.42-2.32-6.53-5.46-5.68-2,.56-6.54,5.79-8.22,7-.78.55-10.28,13.72-11.76,12.74s14.48-18,16.43-21.68c1.42-2.73,3.63-7.13,2.13-10.23a4.58,4.58,0,0,0-7.4-1.53c-2.14,1.87-4.58,5.8-6.3,8s-12.18,20-13.56,19.05,10.6-18.88,12-21.62c1.34-2.55,3.68-6.23,3.92-9.23.19-2.57-2.16-4.05-4.59-4-3.19.12-5.51,3.2-7.64,5.41-2.6,2.69-4.38,6-6.27,9.22-2.68,4.55-5.46,9-7.91,13.69a51.42,51.42,0,0,0-4.09,9.44c-.16.53-1.76,6.78-2.59,6.55s.59-8.11.47-9.64c-.19-3.92.43-8.29-2.05-11.41a3.6,3.6,0,0,0-4.53-1.06c-3.09,1.49-3.9,6.66-4.37,9.62-.39,2.43-.58,4.88-.75,7.34a37.07,37.07,0,0,1-2,8.79c-4.43,17.24,3.29,25,2.14,32.72.25,5.44-2.64,10.72-4.61,15.62a.84.84,0,0,0,.57,1.18,1,1,0,0,0,.49.26c3.74.84,6.88,4.51,10.34,6.23s7.39,2.89,10.51,5.11c1.09.77,2.12-1,1-1.8-.2-.14-.41-.26-.62-.4.44-2.73,2.47-4.79,3.49-7.31.44-1.07.74-2.21,1.11-3.3.71-2.1,1.11-2.48,3.14-3.44,4.42-2.1,7.28-3.92,10.06-8,3.11-4.61,6.67-8.86,9.61-13.6,3.34-5.37,6.93-10.52,10.47-15.76,2.94-4.34,6.62-8.94,7.45-14.27C279.41,240.58,277.71,239.3,275,239.4Z"/><path class="cls-11" d="M204.8,434.17c0-47.22-32.57-145.47-64.6-148.56l-36.12,6.64L68,285.61C35.71,288.72,3.1,378.68,3.1,434.17Z"/><path class="cls-19" d="M191.65,132.4c-1.09-15.1-12.11-30.91-36.15-30.22,0,0-10.37-40.08-54.9-40.08S17.43,92.32,17.43,132.4V317.33A43.64,43.64,0,0,0,61.07,361h87a43.64,43.64,0,0,0,43.64-43.64V132.4Z"/><path class="cls-12" d="M224.39,313.28a33.6,33.6,0,0,1,11.07,1.79c1-9.52,4.91-28.08,6.56-37.58l-22.44-4.92c-3,11.34-8.05,31.86-10.17,43.49A44.32,44.32,0,0,1,224.39,313.28Z"/><path class="cls-11" d="M201.64,435.77c44.24-52.62,53.3-117.07,53.3-117.07a169.12,169.12,0,0,0-44-32.54C183.77,390.44,115,429.06,82.65,434.49l.2,1.28Z"/><rect class="cls-3" x="289.91" y="144.85" width="77.72" height="48.5"/><path class="cls-12" d="M299.47,166.43a5.18,5.18,0,0,0,1,2c.49.72,1,1.43,1.44,2.17s.9,1.24,1.33,1.88a3,3,0,0,0,1.38,1.11.62.62,0,0,1,.44.47c.05.15.09.31.15.46a4.84,4.84,0,0,1,.48,1l-.08.06c-.15.11,0,.35.14.25a10.81,10.81,0,0,1,1.45-.71c.48-.24.91-.74,1.42-.86a.15.15,0,0,0,.07,0,.11.11,0,0,0,.08-.16,5.56,5.56,0,0,1-.64-2.16,3.74,3.74,0,0,1,.41-1.16,3.2,3.2,0,0,0,.23-1.06,6,6,0,0,0-.34-2.29,5.06,5.06,0,0,1-.28-1.21c0-.34-.05-.68-.1-1s-.17-1.13-.6-1.33a.5.5,0,0,0-.63.15,2.67,2.67,0,0,0-.28,1.57l0,1c-.07,0-.24-.53-.26-.6a7.94,7.94,0,0,0-.56-1.31c-.34-.64-.73-1.26-1.1-1.88a6.83,6.83,0,0,0-.86-1.28c-.29-.3-.61-.72-1.05-.74a.56.56,0,0,0-.64.55,4.2,4.2,0,0,0,.54,1.27c.2.38,1.94,3,1.77,3.23s-1.75-2.59-2-2.88a10.25,10.25,0,0,0-.87-1.1.63.63,0,0,0-1,.21c-.21.43.09,1,.29,1.41s2.38,3.38,2.23,3.53-1.62-2.09-1.71-2.19c-.27-.28-.73-1-1-1.07a.62.62,0,0,0-.75.78c.08.24,2.74,3.74,2.58,3.92s-2-2.89-2.4-2.79S299.42,166.09,299.47,166.43Z"/><g class="cls-20"><path class="cls-21" d="M315.5,156.49h26.75a0,0,0,0,1,0,0v26.63a3,3,0,0,1-3,3H315.5a0,0,0,0,1,0,0V156.49A0,0,0,0,1,315.5,156.49Z"/><path class="cls-12" d="M334.34,180a46,46,0,0,1-1.76,6.77,3.94,3.94,0,0,1-3.75,2.77h0a4,4,0,0,1-3.78-2.83c-.77-2.65-1.8-6.25-1.8-6.71a1.82,1.82,0,0,0,1.83-1.82v-4.07h7.43v4.07a1.82,1.82,0,0,0,.53,1.29A1.85,1.85,0,0,0,334.34,180Z"/><path class="cls-13" d="M332.51,174.11v2.76a9.46,9.46,0,0,1-7.43,0v-2.76Z"/><path class="cls-13" d="M322.42,165.71a2.9,2.9,0,1,1-2.89-3A3,3,0,0,1,322.42,165.71Z"/><path class="cls-13" d="M335.17,165.71a2.9,2.9,0,1,0,2.89-3A3,3,0,0,0,335.17,165.71Z"/><path class="cls-12" d="M338.22,161v5.72c0,5.2-6.69,10.2-9.42,10.2s-9.43-5-9.43-10.2V161a1.62,1.62,0,0,1,0-.22,9.41,9.41,0,0,1,11.56-8.95,9,9,0,0,1,2.39.92,8.45,8.45,0,0,1,.95.6,8.6,8.6,0,0,1,1.18,1,9,9,0,0,1,.94,1.1,9.38,9.38,0,0,1,1.81,5.16C338.21,160.69,338.22,160.82,338.22,161Z"/><ellipse class="cls-14" cx="324.58" cy="163.49" rx="1.1" ry="1.47"/><path class="cls-14" d="M334.11,163.49c0,.81-.49,1.47-1.1,1.47s-1.09-.66-1.09-1.47S332.41,162,333,162,334.11,162.67,334.11,163.49Z"/><path class="cls-22" d="M326.22,169.51a.74.74,0,0,0-.54,1.14,3.74,3.74,0,0,0,6.24,0,.74.74,0,0,0-.54-1.14Z"/><path class="cls-13" d="M330.17,167.3c0,.42-.62.76-1.37.76s-1.38-.34-1.38-.76.62,0,1.38,0S330.17,166.89,330.17,167.3Z"/><path class="cls-16" d="M324.07,166.59c0,.66-.74,1.19-1.65,1.19s-1.65-.53-1.65-1.19.74-1.2,1.65-1.2S324.07,165.93,324.07,166.59Z"/><path class="cls-16" d="M333.52,166.59c0,.66.74,1.19,1.65,1.19s1.65-.53,1.65-1.19-.74-1.2-1.65-1.2S333.52,165.93,333.52,166.59Z"/><path class="cls-23" d="M325.83,160.53a2.42,2.42,0,0,0-1.59-.59,2.45,2.45,0,0,0-2.31,1.64"/><path class="cls-23" d="M331.76,160.53a2.42,2.42,0,0,1,1.59-.59,2.45,2.45,0,0,1,2.31,1.64"/><path class="cls-21" d="M318.33,157.56h1V165h0a1,1,0,0,1-1-1Z"/><path class="cls-21" d="M339.26,157.56h-1V165h0a1,1,0,0,0,1-1Z"/><path class="cls-21" d="M336.4,155.39a9,9,0,0,0-.94-1.1,8.6,8.6,0,0,0-1.18-1,8.45,8.45,0,0,0-.95-.6,9,9,0,0,0-2.39-.92,9.41,9.41,0,0,0-11.56,8.95c5.35-.24,9.73-.79,14.29-4.34a4.79,4.79,0,0,0,4.54,4.16A9.38,9.38,0,0,0,336.4,155.39Z"/><path class="cls-21" d="M336.69,151.85a8.59,8.59,0,0,0-8.43-6.15c-6.83,0-12.76,4.64-12.76,10.79s9.88,4.15,18.21-2.21l1.35,1.2s1.42,5.07,4.3,5.07C343.49,160.55,343.68,151.65,336.69,151.85Z"/></g><path class="cls-11" d="M342.3,193.35c-1.88-6.09-4.47-13-8-13.35l-5.54,1-5.54-1c-1.6.16-3,1.66-4.24,3.82a2.18,2.18,0,0,1-3.65.24A35.12,35.12,0,0,1,310,172.22a23.87,23.87,0,0,0-6.21,4.6,36.59,36.59,0,0,0,7.52,16.53h31Z"/></g></svg>